<svg width="288" height="186" viewBox="0 0 288 186" fill="none" xmlns="http://www.w3.org/2000/svg">
<g filter="url(#filter0_g_7_24)">
<path d="M65.3063 16.3906C66.3089 16.8464 67.0837 17.0742 67.6305 17.0742C68.542 16.9831 69.1344 16.9831 69.4079 17.0742C69.6813 17.0742 69.9548 16.9831 70.2282 16.8008C71.0485 16.9831 71.6865 16.9375 72.1423 16.6641L74.193 16.9375C74.7399 16.7552 75.3779 16.7096 76.1071 16.8008C76.8363 16.8008 77.4287 16.9375 77.8844 17.2109C78.887 17.0286 79.5251 16.9831 79.7985 17.0742C80.0719 17.1654 80.3454 17.1198 80.6188 16.9375C80.8011 16.7552 81.1201 16.7096 81.5759 16.8008C82.1227 16.8008 82.4873 16.8919 82.6696 17.0742C83.7634 16.9831 84.4469 16.8919 84.7204 16.8008C85.085 16.6185 85.4495 16.5273 85.8141 16.5273C87.3636 16.6185 88.2751 16.5729 88.5485 16.3906C89.46 16.2083 89.9157 16.026 89.9157 15.8438C89.9157 15.6615 90.0068 15.5703 90.1891 15.5703C90.9183 15.5703 91.4196 15.707 91.693 15.9805C92.1488 15.7982 92.4222 15.6159 92.5134 15.4336C92.6956 15.1602 92.8779 14.8411 93.0602 14.4766C93.7894 14.2031 94.2451 13.793 94.4274 13.2461C94.8831 13.0638 95.2022 12.8815 95.3844 12.6992C95.6579 12.5169 96.0225 12.3346 96.4782 12.1523C96.8428 11.7878 97.0706 11.5599 97.1618 11.4688C97.3441 11.3776 97.5264 11.2865 97.7087 11.1953C98.0732 10.8307 98.4378 10.5573 98.8024 10.375C99.2581 10.1016 99.6227 9.78255 99.8962 9.41797C100.625 8.96224 101.127 8.6888 101.4 8.59766C101.765 8.41536 101.993 8.1875 102.084 7.91406C102.995 7.64062 103.542 7.45833 103.724 7.36719C103.907 7.1849 104.18 7.09375 104.545 7.09375C105 6.63802 105.593 6.41016 106.322 6.41016C107.051 5.86328 107.461 5.68099 107.552 5.86328C107.735 5.95443 108.008 5.95443 108.373 5.86328C109.193 5.58984 109.74 5.4987 110.013 5.58984C110.378 5.58984 110.788 5.58984 111.244 5.58984C112.338 5.77214 112.976 5.95443 113.158 6.13672C113.34 6.59245 113.431 6.95703 113.431 7.23047C113.431 7.50391 113.477 7.73177 113.568 7.91406C114.297 8.46094 114.662 8.82552 114.662 9.00781C115.3 10.1927 115.847 11.0586 116.302 11.6055C115.847 12.3346 115.619 12.7448 115.619 12.8359C115.71 12.9271 115.71 13.0638 115.619 13.2461C114.525 14.3398 113.887 15.2969 113.705 16.1172C113.522 16.9375 113.203 17.7122 112.748 18.4414C112.748 19.0794 112.748 19.4896 112.748 19.6719C112.839 19.8542 112.839 20.082 112.748 20.3555C112.657 20.5378 112.565 20.7656 112.474 21.0391C112.383 21.2214 112.338 21.4948 112.338 21.8594L112.201 24.3203C112.019 24.776 111.836 25.3229 111.654 25.9609C111.563 26.5078 111.472 27.1003 111.381 27.7383C111.289 28.1029 111.198 28.4674 111.107 28.832C111.107 29.1966 111.062 29.5612 110.97 29.9258C111.062 30.5638 111.016 31.0195 110.834 31.293C110.651 31.4753 110.606 31.6576 110.697 31.8398C110.424 33.207 110.287 34.1641 110.287 34.7109C110.378 35.1667 110.241 35.6224 109.877 36.0781C110.059 37.263 110.013 38.1289 109.74 38.6758C109.466 39.1315 109.421 39.5872 109.603 40.043C109.147 40.681 109.011 41.0456 109.193 41.1367C109.375 41.2279 109.421 41.3646 109.33 41.5469C109.056 42.3672 108.965 43.2331 109.056 44.1445C109.239 44.9648 109.056 45.7396 108.509 46.4688C108.418 46.9245 108.418 47.3802 108.509 47.8359C108.692 48.2005 108.692 48.5651 108.509 48.9297L107.826 51.5273C107.826 51.9831 107.826 52.3477 107.826 52.6211C107.917 52.8034 107.871 53.0312 107.689 53.3047L107.416 55.2188C107.233 55.6745 107.188 55.9935 107.279 56.1758C107.37 56.3581 107.233 56.5404 106.869 56.7227C107.142 56.9961 107.233 57.3607 107.142 57.8164C107.051 58.2721 106.823 58.5911 106.459 58.7734C106.459 59.5026 106.459 59.9583 106.459 60.1406C106.459 60.3229 106.368 60.4141 106.185 60.4141C106.368 60.5964 106.368 60.8242 106.185 61.0977C106.094 61.2799 106.094 61.599 106.185 62.0547C106.185 63.1484 106.094 63.6953 105.912 63.6953C105.729 63.6953 105.684 63.7865 105.775 63.9688C105.866 64.9714 105.957 65.6094 106.049 65.8828C106.14 66.0651 106.185 66.2474 106.185 66.4297C105.912 66.7031 105.775 67.0221 105.775 67.3867C105.866 67.6602 105.821 67.888 105.638 68.0703C105.547 69.0729 105.547 69.6654 105.638 69.8477C105.729 70.0299 105.729 70.3034 105.638 70.668C105.638 71.944 105.502 72.9922 105.228 73.8125C105.41 74.1771 105.41 74.4961 105.228 74.7695C105.137 75.043 105.183 75.4076 105.365 75.8633C105.183 77.3216 105 78.0964 104.818 78.1875C104.818 79.0078 104.727 79.6914 104.545 80.2383C104.453 81.1497 104.453 81.7422 104.545 82.0156C104.727 82.2891 104.818 82.6081 104.818 82.9727C104.727 83.9753 104.636 84.5677 104.545 84.75C104.453 84.9323 104.408 85.1146 104.408 85.2969C104.317 85.4792 104.271 85.7526 104.271 86.1172C104.271 86.3906 104.271 86.6641 104.271 86.9375C104.18 88.0312 104.134 88.5781 104.134 88.5781C104.226 88.5781 104.271 88.6693 104.271 88.8516C104.089 89.9453 103.998 90.6289 103.998 90.9023C103.998 91.0846 104.043 91.2669 104.134 91.4492C104.226 91.9961 104.453 92.5885 104.818 93.2266C104.271 93.8646 104.089 94.3659 104.271 94.7305C103.998 95.3685 103.861 95.7786 103.861 95.9609C103.952 96.1432 103.907 96.3255 103.724 96.5078C103.907 96.6901 103.952 96.918 103.861 97.1914C103.861 97.4648 103.861 97.8294 103.861 98.2852C103.77 99.4701 103.679 100.245 103.588 100.609C103.588 100.974 103.724 101.339 103.998 101.703C103.724 102.432 103.588 103.161 103.588 103.891C103.679 104.529 103.724 105.212 103.724 105.941C103.815 106.579 103.77 107.035 103.588 107.309C103.496 107.491 103.496 107.673 103.588 107.855C103.861 109.314 103.952 110.408 103.861 111.137C103.77 111.866 103.815 112.686 103.998 113.598C104.18 114.418 104.226 114.874 104.134 114.965C104.043 115.056 104.043 115.193 104.134 115.375C104.134 115.648 104.18 115.922 104.271 116.195C104.362 116.469 104.453 116.697 104.545 116.879C104.545 117.699 104.59 118.155 104.681 118.246C104.772 118.337 104.818 118.428 104.818 118.52C104.818 118.975 104.818 119.431 104.818 119.887C104.818 120.434 104.727 120.844 104.545 121.117C104.727 122.211 104.864 122.803 104.955 122.895C105.046 122.986 105.091 123.122 105.091 123.305C105.183 124.307 105.228 124.991 105.228 125.355C105.319 125.72 105.365 126.085 105.365 126.449C105.274 126.996 105.319 127.543 105.502 128.09L105.638 130.277C106.003 131.28 106.14 131.827 106.049 131.918C106.049 132.009 106.14 132.146 106.322 132.328C106.049 132.966 106.049 133.513 106.322 133.969C106.687 134.516 106.823 135.154 106.732 135.883C107.006 136.885 107.142 137.478 107.142 137.66C107.142 137.934 107.051 138.207 106.869 138.48C107.233 139.21 107.416 139.665 107.416 139.848C107.416 140.121 107.507 140.303 107.689 140.395C107.871 141.397 107.963 141.898 107.963 141.898C108.509 142.536 108.783 142.947 108.783 143.129C108.783 143.402 108.874 143.539 109.056 143.539C109.33 144.451 109.466 144.997 109.466 145.18C109.558 145.362 109.512 145.499 109.33 145.59C109.694 146.866 110.059 147.777 110.424 148.324C110.788 148.962 111.062 149.509 111.244 149.965C111.244 150.876 111.563 151.469 112.201 151.742C111.927 152.016 111.927 152.243 112.201 152.426C112.565 152.699 112.657 152.973 112.474 153.246C112.839 153.52 113.067 153.884 113.158 154.34C113.249 154.887 113.34 155.434 113.431 155.98C113.796 156.436 114.252 156.846 114.799 157.211C115.254 158.031 115.391 158.441 115.209 158.441C115.118 158.441 115.072 158.533 115.072 158.715C115.437 159.171 115.71 159.398 115.892 159.398C116.075 159.49 116.211 159.626 116.302 159.809C116.758 160.629 116.986 161.085 116.986 161.176C117.077 161.267 117.123 161.404 117.123 161.586C117.578 162.224 117.852 162.589 117.943 162.68C118.034 162.862 118.171 163.044 118.353 163.227C118.9 164.047 119.219 164.503 119.31 164.594C119.493 164.685 119.629 164.822 119.72 165.004C120.358 166.007 120.723 166.508 120.814 166.508C120.996 166.508 121.179 166.553 121.361 166.645C121.908 167.556 122.227 168.057 122.318 168.148C122.5 168.331 122.683 168.513 122.865 168.695C123.229 169.424 123.594 169.88 123.959 170.062C124.414 170.518 124.916 170.746 125.463 170.746C125.827 171.111 126.101 171.339 126.283 171.43C126.465 171.612 126.739 171.658 127.103 171.566C127.377 172.022 127.924 172.432 128.744 172.797C129.291 173.435 129.701 173.799 129.974 173.891C130.339 174.073 130.703 174.255 131.068 174.438C132.071 174.438 132.572 174.483 132.572 174.574C132.663 174.665 132.754 174.757 132.845 174.848C133.301 174.939 133.666 174.939 133.939 174.848C134.304 174.848 134.668 174.893 135.033 174.984C135.306 175.076 135.534 175.167 135.716 175.258C135.899 175.44 136.172 175.486 136.537 175.395H138.998C139.362 175.486 139.636 175.44 139.818 175.258C140.091 175.167 140.319 175.121 140.502 175.121C141.231 175.03 141.732 175.03 142.006 175.121C142.279 175.212 142.552 175.167 142.826 174.984C143.464 174.438 144.011 174.118 144.466 174.027C144.922 173.936 145.332 173.799 145.697 173.617C146.335 173.526 146.745 173.344 146.927 173.07C147.11 172.888 147.338 172.888 147.611 173.07C147.976 171.703 148.295 170.928 148.568 170.746C148.933 170.564 149.206 170.336 149.388 170.062C149.662 170.062 149.89 170.108 150.072 170.199C150.345 170.382 150.619 170.473 150.892 170.473C150.801 171.384 150.664 171.885 150.482 171.977C150.3 172.068 150.209 172.296 150.209 172.66C149.206 172.66 148.705 172.751 148.705 172.934C148.705 173.207 148.705 173.435 148.705 173.617C147.793 174.073 147.292 174.301 147.201 174.301C147.11 174.392 146.973 174.438 146.791 174.438C146.608 174.984 146.381 175.303 146.107 175.395C145.834 175.577 145.606 175.531 145.424 175.258C145.241 175.44 145.013 175.622 144.74 175.805C144.466 175.987 144.284 176.26 144.193 176.625C143.737 176.807 143.327 177.035 142.963 177.309C142.598 177.673 142.188 177.764 141.732 177.582C141.459 177.764 141.14 177.947 140.775 178.129C140.502 178.311 140.091 178.402 139.545 178.402C138.451 178.585 137.813 178.721 137.631 178.812C137.448 178.995 137.266 179.177 137.084 179.359C136.081 179.268 135.534 179.268 135.443 179.359C135.443 179.451 135.352 179.542 135.17 179.633C134.714 179.542 134.304 179.542 133.939 179.633C133.666 179.724 133.347 179.861 132.982 180.043C132.618 179.861 132.344 179.724 132.162 179.633C132.071 179.633 131.706 179.678 131.068 179.77C130.065 179.496 129.564 179.451 129.564 179.633C128.197 179.451 127.468 179.405 127.377 179.496C126.192 179.587 125.554 179.678 125.463 179.77C125.463 179.952 125.326 179.997 125.052 179.906C124.688 179.724 124.278 179.542 123.822 179.359C123.366 179.268 122.956 179.086 122.591 178.812C121.862 178.812 121.452 178.767 121.361 178.676C121.361 178.585 121.27 178.539 121.088 178.539C120.45 178.266 119.994 178.038 119.72 177.855C119.447 177.764 119.219 177.628 119.037 177.445C118.125 177.263 117.578 177.126 117.396 177.035C116.667 176.397 116.12 175.987 115.756 175.805C114.844 175.167 114.343 174.757 114.252 174.574C114.16 174.483 113.933 174.438 113.568 174.438C113.477 173.982 113.249 173.617 112.884 173.344C112.611 173.161 112.383 172.888 112.201 172.523C111.563 171.43 111.062 170.792 110.697 170.609C110.515 170.062 110.241 169.607 109.877 169.242C109.603 168.878 109.375 168.467 109.193 168.012C108.555 167.283 108.145 166.645 107.963 166.098C107.871 165.642 107.598 165.277 107.142 165.004C106.96 164.184 106.595 163.454 106.049 162.816C105.593 162.27 105.274 161.495 105.091 160.492C104.453 159.763 104.134 159.216 104.134 158.852C103.588 158.031 103.269 157.484 103.177 157.211C103.177 157.029 103.086 156.846 102.904 156.664C102.813 155.753 102.722 155.115 102.631 154.75C102.631 154.385 102.585 154.066 102.494 153.793C101.765 152.79 101.263 152.016 100.99 151.469C100.716 151.013 100.534 150.329 100.443 149.418C99.8962 148.142 99.5772 147.185 99.486 146.547C99.486 146 99.3037 145.499 98.9391 145.043C98.5745 143.949 98.3923 143.174 98.3923 142.719C98.4834 142.263 98.4378 141.853 98.2555 141.488C97.9821 140.759 97.8454 140.212 97.8454 139.848C97.8454 139.574 97.7542 139.255 97.5719 138.891C97.3897 137.615 97.2985 136.703 97.2985 136.156C97.2985 135.701 97.1618 135.336 96.8884 135.062C97.0706 134.516 97.0251 133.923 96.7516 133.285C96.4782 132.647 96.5693 132.1 97.0251 131.645C96.6605 130.824 96.4326 130.277 96.3415 130.004C96.2503 129.73 96.2048 129.366 96.2048 128.91C96.1136 128.181 96.068 127.725 96.068 127.543C96.1592 127.361 96.2048 127.178 96.2048 126.996C96.1136 126.632 96.0225 126.267 95.9313 125.902C95.8402 125.538 95.7946 125.173 95.7946 124.809C95.5212 123.806 95.3844 122.986 95.3844 122.348C95.4756 121.801 95.5212 121.391 95.5212 121.117C95.2477 119.841 95.2022 118.839 95.3844 118.109C95.4756 117.198 95.4756 116.742 95.3844 116.742C95.2933 116.742 95.2933 116.651 95.3844 116.469C95.2933 115.284 95.2477 114.509 95.2477 114.145C95.3389 113.871 95.2933 113.552 95.111 113.188C95.0199 112.823 94.9743 112.549 94.9743 112.367C94.8831 111.911 94.8831 111.456 94.9743 111C95.1566 110.635 95.2477 110.271 95.2477 109.906C94.9743 108.904 94.8831 108.357 94.9743 108.266C95.0654 108.083 95.111 107.901 95.111 107.719C95.111 107.172 95.0654 106.625 94.9743 106.078C94.8831 105.44 94.8376 104.802 94.8376 104.164C94.8376 103.344 94.8831 102.478 94.9743 101.566C95.1566 100.655 95.2022 99.7435 95.111 98.832C94.3818 98.832 93.8805 98.7865 93.6071 98.6953C93.4248 98.6042 93.1514 98.5586 92.7868 98.5586C92.0576 98.5586 91.6019 98.6042 91.4196 98.6953C91.3285 98.6953 91.1917 98.6953 91.0094 98.6953C90.736 98.6042 90.3714 98.513 89.9157 98.4219C89.5511 98.2396 89.1865 98.194 88.8219 98.2852C87.4548 98.5586 86.3154 98.6497 85.404 98.5586C84.5837 98.4674 83.7634 98.513 82.943 98.6953C82.6696 98.6953 82.3506 98.7409 81.986 98.832C81.7126 98.9232 81.4391 98.9688 81.1657 98.9688C80.8923 99.0599 80.6188 99.0599 80.3454 98.9688C80.0719 98.8776 79.8441 98.832 79.6618 98.832C78.7503 98.9232 78.1123 98.9688 77.7477 98.9688C77.3831 98.8776 77.0641 98.832 76.7907 98.832C75.2412 98.9232 74.1475 99.0599 73.5094 99.2422C72.8714 99.4245 72.3245 99.4245 71.8688 99.2422C71.0485 99.3333 70.5472 99.3789 70.3649 99.3789C70.1826 99.3789 70.0003 99.3333 69.818 99.2422C69.5446 99.3333 69.2256 99.4245 68.861 99.5156C68.5876 99.6068 68.3141 99.6979 68.0407 99.7891C67.4938 100.427 67.0837 100.883 66.8102 101.156C66.9925 101.339 66.9925 101.612 66.8102 101.977C66.7191 102.341 66.5824 102.615 66.4001 102.797C66.5824 103.161 66.5824 103.526 66.4001 103.891C66.3089 104.164 66.3545 104.529 66.5368 104.984C65.9899 105.622 65.7165 106.124 65.7165 106.488C65.3519 106.579 65.124 106.762 65.0329 107.035C65.0329 107.309 64.8962 107.491 64.6227 107.582C64.6227 108.038 64.5772 108.448 64.486 108.812C64.3949 109.086 64.2581 109.359 64.0759 109.633C63.8936 110.727 63.7568 111.365 63.6657 111.547C63.5745 111.82 63.3467 112.048 62.9821 112.23C62.891 113.142 62.7087 113.734 62.4352 114.008C62.4352 114.828 62.3441 115.284 62.1618 115.375C62.0706 115.557 62.0251 115.74 62.0251 115.922C62.0251 116.833 61.7516 117.426 61.2048 117.699C61.1136 118.246 60.9313 118.702 60.6579 119.066C60.4756 119.522 60.2477 119.978 59.9743 120.434L59.2907 122.348C59.0173 122.439 58.835 122.621 58.7438 122.895C58.6527 123.168 58.4704 123.35 58.1969 123.441C57.9235 124.444 57.7868 125.036 57.7868 125.219C57.8779 125.401 57.8779 125.629 57.7868 125.902C56.7842 126.449 56.3285 126.768 56.4196 126.859C56.5107 127.042 56.5107 127.224 56.4196 127.406C55.8727 127.862 55.6449 128.181 55.736 128.363C55.9183 128.546 55.9639 128.773 55.8727 129.047C55.1436 129.867 54.5967 130.277 54.2321 130.277C54.141 131.28 53.9587 131.827 53.6852 131.918C53.5029 132.009 53.3206 132.146 53.1384 132.328C53.2295 132.784 53.0928 133.057 52.7282 133.148C52.4548 133.24 52.4092 133.467 52.5915 133.832C51.7712 134.835 51.042 135.427 50.404 135.609C49.6748 136.43 49.3558 136.84 49.4469 136.84C49.2647 137.204 49.0824 137.478 48.9001 137.66C48.8089 137.842 48.6722 138.07 48.4899 138.344C48.0342 139.073 47.7152 139.483 47.5329 139.574C47.3506 139.665 47.2139 139.802 47.1227 139.984C46.4847 140.896 45.8923 141.397 45.3454 141.488C44.7074 142.309 44.2516 142.81 43.9782 142.992C43.7959 143.266 43.6592 143.493 43.568 143.676C43.0212 143.676 42.6566 143.812 42.4743 144.086C42.3831 144.359 42.2464 144.633 42.0641 144.906C41.8818 145.089 41.6995 145.271 41.5173 145.453C41.335 145.635 41.1982 145.863 41.1071 146.137C39.9222 146.866 38.9196 147.367 38.0993 147.641C37.3701 148.005 36.8232 148.552 36.4587 149.281C35.5472 149.646 35.0915 149.874 35.0915 149.965C35.1826 150.147 35.1826 150.284 35.0915 150.375C34.4535 150.284 34.0433 150.375 33.861 150.648C33.6787 151.013 33.3597 151.241 32.904 151.332C31.7191 151.879 30.9899 152.243 30.7165 152.426C30.443 152.608 30.124 152.79 29.7594 152.973C29.1214 153.064 28.6201 153.155 28.2555 153.246C27.7998 153.428 27.4808 153.656 27.2985 153.93C26.4782 153.747 26.0225 153.702 25.9313 153.793C25.8402 153.975 25.7035 153.975 25.5212 153.793C24.6097 153.793 24.154 153.747 24.154 153.656C24.154 153.565 24.0628 153.52 23.8805 153.52C22.6956 153.611 21.5563 153.52 20.4626 153.246C19.7334 153.337 19.141 153.337 18.6852 153.246C18.2295 153.155 18.0016 152.882 18.0016 152.426C17.4548 152.335 16.999 152.289 16.6344 152.289C16.1787 152.38 15.723 152.335 15.2673 152.152C15.085 152.061 14.9027 151.924 14.7204 151.742C14.5381 151.56 14.2191 151.514 13.7634 151.605C13.2165 151.15 12.8519 150.785 12.6696 150.512C12.3962 150.329 12.0316 150.284 11.5759 150.375C11.2113 149.646 10.8011 149.236 10.3454 149.145L9.38835 147.504C8.65918 146.592 8.2946 146.091 8.2946 146C8.2946 145.909 8.20346 145.727 8.02116 145.453C7.74773 144.997 7.61101 144.633 7.61101 144.359C7.61101 144.177 7.47429 144.086 7.20085 144.086C7.20085 143.448 7.15528 143.083 7.06413 142.992C6.88184 142.901 6.74512 142.764 6.65398 142.582C6.56283 141.671 6.42611 141.124 6.24382 140.941C6.24382 140.03 6.1071 139.483 5.83366 139.301C6.01596 138.936 6.15267 138.526 6.24382 138.07C6.24382 137.615 6.06153 137.25 5.69695 136.977C6.06153 136.065 6.24382 135.609 6.24382 135.609C6.15267 135.609 6.1071 135.564 6.1071 135.473C6.19825 134.652 6.33497 134.06 6.51726 133.695C6.33497 133.422 6.33497 133.103 6.51726 132.738C6.6084 132.465 6.74512 132.237 6.92741 132.055C6.83627 131.417 6.92741 130.961 7.20085 130.688C7.38314 130.414 7.47429 129.958 7.47429 129.32C7.83887 128.865 8.06674 128.454 8.15788 128.09C8.24903 127.725 8.38575 127.315 8.56804 126.859C9.20606 126.039 9.66179 125.447 9.93523 125.082C10.2087 124.717 10.4365 124.307 10.6188 123.852C11.348 122.849 11.8949 122.257 12.2594 122.074C12.624 121.892 12.8519 121.573 12.943 121.117C13.3988 120.935 13.7634 120.616 14.0368 120.16C14.3102 119.796 14.6748 119.522 15.1305 119.34C15.6774 118.884 16.1331 118.474 16.4977 118.109C16.7712 117.745 17.1357 117.38 17.5915 117.016C18.0472 116.742 18.3206 116.56 18.4118 116.469C18.5029 116.378 18.6852 116.241 18.9587 116.059C19.6878 115.694 20.2347 115.421 20.5993 115.238C20.9639 115.147 21.3285 115.01 21.693 114.828C22.6956 114.099 23.2881 113.689 23.4704 113.598C23.6527 113.507 23.8805 113.461 24.154 113.461C24.9743 113.005 25.43 112.777 25.5212 112.777C26.1592 112.777 26.5693 112.732 26.7516 112.641C26.8428 112.641 26.9795 112.641 27.1618 112.641C27.9821 112.641 28.4378 112.641 28.529 112.641C28.529 112.732 28.6201 112.777 28.8024 112.777C29.9873 112.868 30.8532 113.005 31.4001 113.188C32.8584 113.552 33.7243 113.871 33.9977 114.145C34.2712 114.418 34.6357 114.6 35.0915 114.691C35.5472 115.512 36.0029 115.967 36.4587 116.059C36.5498 116.514 36.9144 116.879 37.5524 117.152C37.7347 117.973 37.917 118.337 38.0993 118.246C38.2816 118.246 38.4183 118.292 38.5094 118.383C39.1475 119.203 39.4665 119.796 39.4665 120.16C39.5576 120.525 39.6943 120.844 39.8766 121.117C39.6032 122.12 39.512 122.712 39.6032 122.895C39.7855 123.168 39.8766 123.396 39.8766 123.578C39.9678 124.034 39.9222 124.49 39.7399 124.945C39.5576 125.401 39.4665 125.948 39.4665 126.586C38.6462 127.224 38.1904 127.589 38.0993 127.68C38.0081 127.862 37.8714 127.999 37.6891 128.09C37.4157 128.819 37.1423 129.184 36.8688 129.184C36.6865 129.184 36.5042 129.229 36.3219 129.32C35.5928 130.232 35.137 130.779 34.9548 130.961C34.7725 131.143 34.499 131.234 34.1344 131.234C33.6787 130.141 33.4964 129.32 33.5876 128.773C33.7699 128.318 33.861 127.862 33.861 127.406C33.7699 126.859 33.5876 126.312 33.3141 125.766C33.0407 125.31 32.8128 124.854 32.6305 124.398C32.1748 123.943 31.7191 123.533 31.2634 123.168C30.8076 122.803 30.4886 122.302 30.3063 121.664C29.2126 121.391 28.6201 121.208 28.529 121.117C28.4378 121.026 28.3011 120.935 28.1188 120.844C27.2985 120.844 26.6605 120.753 26.2048 120.57C25.6579 120.388 25.1566 120.16 24.7009 119.887C24.2451 119.978 23.8805 120.023 23.6071 120.023C23.2425 120.023 22.8779 120.023 22.5134 120.023C21.693 120.115 21.1917 120.206 21.0094 120.297C20.8272 120.388 20.5537 120.388 20.1891 120.297C19.46 121.026 18.8675 121.482 18.4118 121.664C17.8649 122.302 17.5459 122.803 17.4548 123.168C17.3636 123.533 17.1357 123.806 16.7712 123.988C16.4977 124.9 16.2699 125.492 16.0876 125.766C15.8141 126.13 15.5863 126.449 15.404 126.723C15.2217 127.452 15.1761 127.999 15.2673 128.363C15.2673 128.819 15.085 129.138 14.7204 129.32C15.085 129.594 15.2217 129.867 15.1305 130.141C15.0394 130.414 14.9938 130.733 14.9938 131.098C14.9938 131.553 15.0394 131.918 15.1305 132.191C15.2217 132.465 15.0394 132.693 14.5837 132.875C14.8571 133.422 15.0394 133.832 15.1305 134.105C15.2217 134.47 15.2673 134.789 15.2673 135.062C14.9027 136.065 14.7204 136.749 14.7204 137.113C14.6292 137.478 14.4925 137.751 14.3102 137.934C14.9482 138.572 15.2217 138.936 15.1305 139.027C15.0394 139.21 14.9938 139.392 14.9938 139.574C15.8141 139.848 16.2243 140.212 16.2243 140.668C16.68 141.033 16.9535 141.215 17.0446 141.215C17.1357 141.306 17.3636 141.306 17.7282 141.215C17.9105 142.126 18.1384 142.582 18.4118 142.582C18.5941 142.673 18.6852 142.901 18.6852 143.266C19.6878 143.448 20.3259 143.721 20.5993 144.086C20.8727 144.451 21.2373 144.724 21.693 144.906C22.5134 145.362 22.9691 145.544 23.0602 145.453C23.1514 145.453 23.2881 145.499 23.4704 145.59C24.473 145.863 25.111 145.954 25.3844 145.863C25.5667 145.863 25.749 145.909 25.9313 146C26.7516 146.182 27.3441 146.228 27.7087 146.137C27.9821 146.046 28.3011 146.091 28.6657 146.273C29.7594 146.273 30.5798 146.182 31.1266 146C31.6735 145.818 32.3571 145.727 33.1774 145.727C33.3597 145.544 33.6331 145.362 33.9977 145.18C34.4535 145.089 34.7725 144.906 34.9548 144.633C36.1397 144.177 36.96 143.812 37.4157 143.539C37.8714 143.357 38.236 142.992 38.5094 142.445C38.9652 142.081 39.2842 141.853 39.4665 141.762C39.6488 141.762 39.6943 141.625 39.6032 141.352C40.0589 141.26 40.3779 141.078 40.5602 140.805C40.8337 140.531 41.1982 140.303 41.654 140.121C42.0186 139.574 42.292 139.21 42.4743 139.027C42.6566 138.936 42.8389 138.845 43.0212 138.754C43.0212 138.298 43.1579 137.979 43.4313 137.797C43.7959 137.615 43.9782 137.25 43.9782 136.703C44.7074 136.521 45.1631 136.111 45.3454 135.473C45.6188 134.926 46.029 134.561 46.5759 134.379C46.9404 133.832 47.1683 133.376 47.2594 133.012C47.4417 132.738 47.6696 132.465 47.943 132.191C48.4899 131.553 48.7634 131.098 48.7634 130.824C48.7634 130.551 48.9001 130.323 49.1735 130.141C49.6292 129.503 49.9027 129.047 49.9938 128.773C50.085 128.5 50.2673 128.272 50.5407 128.09C50.5407 127.361 50.7686 126.814 51.2243 126.449C51.68 126.176 51.8623 125.583 51.7712 124.672C52.318 124.034 52.6826 123.259 52.8649 122.348C53.1384 121.436 53.5485 120.616 54.0954 119.887C54.46 118.793 54.7334 117.927 54.9157 117.289C55.1891 116.742 55.2803 116.15 55.1891 115.512C55.6449 114.783 55.9639 114.327 56.1462 114.145C56.4196 114.053 56.5107 113.78 56.4196 113.324C56.8753 113.051 57.1032 112.595 57.1032 111.957C57.1943 111.41 57.4222 110.909 57.7868 110.453C58.1514 109.815 58.3337 109.223 58.3337 108.676C58.3337 108.129 58.4704 107.719 58.7438 107.445C59.0173 106.534 59.2907 105.714 59.5641 104.984C59.6553 104.711 59.7009 104.483 59.7009 104.301C59.7009 104.118 59.7464 103.799 59.8376 103.344C60.2022 102.615 60.3389 102.204 60.2477 102.113C60.2477 101.931 60.2477 101.749 60.2477 101.566C60.3389 101.384 60.4756 101.156 60.6579 100.883C60.8402 100.609 60.9313 100.382 60.9313 100.199C61.0225 99.8346 60.9769 99.4701 60.7946 99.1055C60.7035 98.7409 60.7035 98.3763 60.7946 98.0117C60.9769 97.556 61.2959 97.1458 61.7516 96.7812C62.2985 96.4167 62.3897 95.9154 62.0251 95.2773C62.4808 94.1836 62.7542 93.5 62.8454 93.2266C63.0277 92.9531 63.0277 92.6797 62.8454 92.4062C63.1188 91.5859 63.21 91.0846 63.1188 90.9023C63.1188 90.7201 63.1644 90.5378 63.2555 90.3555C63.7113 89.3529 63.8936 88.6237 63.8024 88.168C63.8024 87.7122 63.8936 87.2565 64.0759 86.8008L64.6227 85.2969C64.8962 84.0208 64.9873 83.2005 64.8962 82.8359C64.8962 82.3802 65.0329 82.0156 65.3063 81.7422C65.0329 80.9219 65.0329 80.2383 65.3063 79.6914C65.6709 79.0534 65.8532 78.3242 65.8532 77.5039C66.0355 76.5924 66.1266 76.0456 66.1266 75.8633C66.2178 75.681 66.3545 75.4987 66.5368 75.3164C66.7191 74.8607 66.8102 74.5417 66.8102 74.3594C66.8102 74.1771 66.8558 73.9948 66.9469 73.8125C67.0381 73.0833 67.1292 72.7188 67.2204 72.7188C67.4027 72.6276 67.4938 72.4909 67.4938 72.3086C67.585 71.3971 67.7217 70.7591 67.904 70.3945C68.0863 70.0299 68.1774 69.6654 68.1774 69.3008C68.3597 68.207 68.4509 67.4323 68.4509 66.9766C68.9977 65.7917 69.2256 64.9714 69.1344 64.5156C69.1344 63.9688 69.3623 63.513 69.818 63.1484C70.0915 62.1458 70.2282 61.6445 70.2282 61.6445C70.4105 60.9154 70.5016 60.4141 70.5016 60.1406C70.8662 59.2292 71.0485 58.5456 71.0485 58.0898C71.0485 57.543 71.2308 57.0417 71.5954 56.5859C71.5042 55.8568 71.5954 55.2643 71.8688 54.8086C72.1423 54.2617 72.2334 53.806 72.1423 53.4414C72.5068 52.6211 72.7347 52.1198 72.8259 51.9375C72.917 51.2995 73.0081 50.9805 73.0993 50.9805C73.2816 50.8893 73.4183 50.7526 73.5094 50.5703C73.6006 50.1146 73.6462 49.6589 73.6462 49.2031C73.7373 48.7474 73.9196 48.3372 74.193 47.9727C74.3753 46.8789 74.4665 46.332 74.4665 46.332C74.7399 45.5117 74.9222 44.9193 75.0134 44.5547C75.1045 44.099 75.3324 43.7344 75.6969 43.4609C75.6058 42.6406 75.7425 42.0026 76.1071 41.5469C76.5628 41.0911 76.7907 40.4987 76.7907 39.7695C77.1553 38.9492 77.292 38.5391 77.2009 38.5391C77.1097 38.4479 77.0641 38.2656 77.0641 37.9922C77.5199 37.8099 77.7477 37.582 77.7477 37.3086C77.8389 37.0352 78.0667 36.8073 78.4313 36.625C78.7048 35.987 78.8415 35.6224 78.8415 35.5312C78.9326 35.349 79.1149 35.2578 79.3884 35.2578C79.7529 34.1641 79.9808 33.5716 80.0719 33.4805C80.6188 32.7513 80.8467 32.3411 80.7555 32.25C80.6644 32.0677 80.71 31.8854 80.8923 31.7031L81.7126 30.0625C82.0772 29.7891 82.305 29.4245 82.3962 28.9688C82.5785 28.513 82.8519 28.1484 83.2165 27.875C83.3076 27.3281 83.6722 26.7357 84.3102 26.0977C84.8571 25.5508 85.1305 25.1862 85.1305 25.0039C85.2217 24.8216 85.3128 24.6849 85.404 24.5938C85.8597 23.9557 86.0876 23.6367 86.0876 23.6367C86.1787 23.6367 86.2699 23.5456 86.361 23.3633C86.6344 23.0898 86.8167 22.862 86.9079 22.6797C86.999 22.4974 87.1813 22.3607 87.4548 22.2695C86.4522 21.5404 85.6318 21.2214 84.9938 21.3125C84.4469 21.3125 83.9001 21.4036 83.3532 21.5859C83.1709 21.5859 82.8975 21.6315 82.5329 21.7227C82.2594 21.8138 81.8949 21.9049 81.4391 21.9961C80.4365 21.9961 79.9352 21.9961 79.9352 21.9961C78.9326 22.1784 78.3857 22.2695 78.2946 22.2695C77.292 22.3607 76.7451 22.4062 76.654 22.4062C76.5628 22.3151 76.4261 22.2695 76.2438 22.2695L72.279 22.4062C71.7321 22.4062 71.2308 22.4062 70.7751 22.4062C70.3193 22.4062 69.7725 22.3607 69.1344 22.2695C68.7699 22.2695 68.4053 22.224 68.0407 22.1328C67.7673 22.0417 67.4482 21.9961 67.0837 21.9961C65.9899 22.4518 65.124 22.6341 64.486 22.543C63.9391 22.4518 63.3923 22.4062 62.8454 22.4062C62.5719 22.4062 62.2074 22.4518 61.7516 22.543C61.387 22.6341 61.0225 22.543 60.6579 22.2695C59.7464 22.6341 58.9261 22.6341 58.1969 22.2695C57.7412 22.6341 57.2399 22.7708 56.693 22.6797C56.1462 22.4974 55.5537 22.543 54.9157 22.8164C53.2751 22.9987 51.5433 23.0898 49.7204 23.0898C48.8089 23.3633 48.1253 23.5 47.6696 23.5C47.305 23.5 46.8949 23.5456 46.4391 23.6367C45.9834 23.9102 45.6188 24.0469 45.3454 24.0469C45.0719 23.9557 44.7985 23.9557 44.5251 24.0469C43.5225 24.3203 42.8389 24.457 42.4743 24.457C42.1097 24.457 41.8363 24.5482 41.654 24.7305C41.3805 24.9128 41.1071 25.0495 40.8337 25.1406C40.5602 25.2318 40.1956 25.3685 39.7399 25.5508L37.279 26.0977C36.0941 26.918 35.2738 27.3737 34.818 27.4648C34.4535 27.9206 34.1344 28.1484 33.861 28.1484C33.5876 28.1484 33.3597 28.194 33.1774 28.2852C32.4482 28.7409 32.0381 29.0143 31.9469 29.1055C31.9469 29.1966 31.8558 29.3333 31.6735 29.5156C30.9443 29.6979 30.5342 29.9258 30.443 30.1992C30.3519 30.4727 30.124 30.6094 29.7594 30.6094C29.6683 31.7031 29.4404 32.3411 29.0759 32.5234C28.6201 33.6172 28.3011 34.2552 28.1188 34.4375C27.8454 34.5286 27.6175 34.6654 27.4352 34.8477C27.5264 35.9414 27.4808 36.5339 27.2985 36.625C27.1162 36.7161 26.9339 36.8529 26.7516 37.0352C25.6579 38.1289 25.111 39.1315 25.111 40.043C25.0199 40.9544 24.8831 41.8659 24.7009 42.7773C24.5186 43.7799 24.3818 44.418 24.2907 44.6914C24.1084 44.9648 24.1084 45.2839 24.2907 45.6484C24.1995 47.1979 24.3363 48.3372 24.7009 49.0664C25.0654 50.069 25.2933 50.6159 25.3844 50.707C25.4756 50.707 25.5212 50.7982 25.5212 50.9805C25.7035 51.2539 25.7946 51.5729 25.7946 51.9375C25.7035 52.2109 25.7035 52.4388 25.7946 52.6211C25.9769 53.0768 26.2503 53.4414 26.6149 53.7148C26.8884 53.9883 27.1618 54.2617 27.4352 54.5352C27.6175 55.2643 27.8454 55.7656 28.1188 56.0391C28.3011 56.2214 28.6201 56.2669 29.0759 56.1758C29.0759 56.7227 29.3493 57.0417 29.8962 57.1328C30.5342 57.1328 30.8532 57.4062 30.8532 57.9531C31.2178 57.9531 31.5368 58.1354 31.8102 58.5C32.0837 58.7734 32.4482 58.9557 32.904 59.0469L34.5446 59.457C35.0003 59.6393 35.2738 59.8216 35.3649 60.0039C35.5472 60.0951 35.8662 60.0495 36.3219 59.8672C36.96 60.4141 37.4157 60.5052 37.6891 60.1406C38.0537 59.776 38.4639 59.5938 38.9196 59.5938C39.5576 59.9583 40.1956 60.2318 40.8337 60.4141C41.4717 60.5052 41.7907 60.6875 41.7907 60.9609C40.6969 61.599 39.9222 62.0547 39.4665 62.3281C39.0107 62.6016 38.555 62.8294 38.0993 63.0117C37.3701 62.9206 36.96 62.9206 36.8688 63.0117C36.7777 63.1029 36.641 63.194 36.4587 63.2852C35.9118 63.2852 35.5472 63.3763 35.3649 63.5586C35.1826 63.6497 35.0003 63.6042 34.818 63.4219C33.9977 63.6953 33.542 63.7865 33.4509 63.6953C33.3597 63.513 33.223 63.4674 33.0407 63.5586C31.8558 63.832 31.1266 64.0599 30.8532 64.2422C30.6709 64.3333 30.4886 64.3789 30.3063 64.3789C29.9417 64.3789 29.5772 64.3333 29.2126 64.2422C28.7568 64.151 28.3011 64.1055 27.8454 64.1055C26.9339 63.6497 26.4782 63.4219 26.4782 63.4219L23.8805 62.875C23.0602 62.1458 22.6045 61.8268 22.5134 61.918C22.3311 62.0091 22.1488 62.0547 21.9665 62.0547C21.4196 61.6901 21.1462 61.4167 21.1462 61.2344C21.1462 60.9609 21.055 60.8698 20.8727 60.9609C20.2347 60.0495 19.7334 59.5026 19.3688 59.3203C19.1865 58.6823 18.9131 58.2266 18.5485 57.9531C18.1839 57.5885 18.0472 57.0417 18.1384 56.3125C17.5915 55.7656 17.318 55.401 17.318 55.2188C17.318 55.0365 17.2725 54.8542 17.1813 54.6719C16.8167 53.6693 16.68 53.1224 16.7712 53.0312C16.7712 52.9401 16.7256 52.8034 16.6344 52.6211C16.6344 52.1654 16.5889 51.8008 16.4977 51.5273C16.3154 51.1628 16.1787 50.7982 16.0876 50.4336C16.2699 49.3398 16.3154 48.5651 16.2243 48.1094C16.1331 47.6536 16.0876 47.2435 16.0876 46.8789C16.361 46.2409 16.4977 45.7396 16.4977 45.375C16.7712 44.737 16.9079 44.2812 16.9079 44.0078C16.9079 43.7344 16.999 43.4609 17.1813 43.1875C17.637 40.9089 18.2295 39.3138 18.9587 38.4023C19.2321 37.3997 19.4144 36.8529 19.5055 36.7617C20.1436 35.668 20.6449 35.1211 21.0094 35.1211C21.0094 34.7565 21.1006 34.4831 21.2829 34.3008C21.4652 34.1185 21.5563 33.8451 21.5563 33.4805C22.4678 32.569 23.2425 31.8854 23.8805 31.4297C24.5186 30.8828 25.0654 30.2448 25.5212 29.5156C25.8857 29.2422 26.2048 29.1055 26.4782 29.1055C26.6605 29.0143 26.7516 28.832 26.7516 28.5586C27.3897 28.1029 27.7998 27.7839 27.9821 27.6016C28.1644 27.4193 28.3467 27.237 28.529 27.0547C29.4404 26.6901 30.124 26.0521 30.5798 25.1406C31.4912 24.6849 31.9469 24.4115 31.9469 24.3203C32.585 23.9557 32.9951 23.7734 33.1774 23.7734C33.3597 23.6823 33.5876 23.5456 33.861 23.3633C34.6813 22.8164 35.1826 22.543 35.3649 22.543C35.6384 22.4518 35.8206 22.2695 35.9118 21.9961C36.641 21.5404 37.1423 21.3125 37.4157 21.3125C37.7803 21.3125 38.0993 21.2669 38.3727 21.1758C38.8285 21.0846 39.2842 20.8112 39.7399 20.3555C40.8337 20.082 41.4261 19.8997 41.5173 19.8086L44.9352 18.9883L47.5329 18.0312C48.3532 17.4844 48.9001 17.2109 49.1735 17.2109C49.5381 17.2109 49.9027 17.1198 50.2673 16.9375C51.1787 16.6641 51.7712 16.5729 52.0446 16.6641C52.318 16.7552 52.5459 16.6641 52.7282 16.3906C53.0016 16.5729 53.2751 16.6185 53.5485 16.5273C53.9131 16.4362 54.2321 16.3906 54.5055 16.3906C54.9613 16.2995 55.3714 16.2995 55.736 16.3906C56.1006 16.3906 56.4652 16.2995 56.8298 16.1172C57.1032 16.2995 57.4222 16.3451 57.7868 16.2539C58.2425 16.1628 58.6071 16.2539 58.8805 16.5273C59.9743 16.4362 60.43 16.4362 60.2477 16.5273C60.1566 16.5273 60.2477 16.4818 60.5212 16.3906C61.1592 16.5729 61.5238 16.6185 61.6149 16.5273C61.7972 16.3451 61.9795 16.2995 62.1618 16.3906C62.7087 16.4818 63.0732 16.5273 63.2555 16.5273C63.4378 16.4362 63.7113 16.3906 64.0759 16.3906H65.3063ZM101.81 17.0742C101.354 17.5299 100.899 17.7578 100.443 17.7578C99.5316 18.2135 99.0303 18.4414 98.9391 18.4414L97.1618 18.9883C96.7061 19.0794 96.2959 19.1706 95.9313 19.2617C95.6579 19.2617 95.43 19.3073 95.2477 19.3984C94.792 20.401 94.3818 21.0391 94.0173 21.3125C93.6527 21.4948 93.2881 21.7227 92.9235 21.9961C92.6501 23.5456 91.8753 24.5026 90.5993 24.8672C90.1436 25.5052 89.9157 25.8698 89.9157 25.9609C90.0068 26.0521 90.0068 26.1432 89.9157 26.2344C89.1865 27.0547 88.7764 27.5104 88.6852 27.6016C88.6852 27.6927 88.5941 27.8294 88.4118 28.0117C88.4118 29.1055 88.1384 29.8346 87.5915 30.1992C87.5003 30.9284 87.4092 31.4297 87.318 31.7031C87.318 31.9766 87.2269 32.2956 87.0446 32.6602C86.4066 33.207 86.042 33.526 85.9509 33.6172C85.8597 33.7083 85.7686 33.8451 85.6774 34.0273C85.6774 34.7565 85.5863 35.2578 85.404 35.5312C85.3128 35.7135 85.2673 35.8958 85.2673 36.0781C84.6292 37.0807 84.2647 37.8555 84.1735 38.4023C84.1735 38.9492 83.9456 39.4049 83.4899 39.7695C83.4899 40.3164 83.3076 40.7266 82.943 41C82.6696 41.2734 82.5329 41.6836 82.5329 42.2305C82.1683 42.7773 81.8949 43.1419 81.7126 43.3242C81.6214 43.4154 81.6214 43.5521 81.7126 43.7344C81.7126 45.0104 81.6214 45.8307 81.4391 46.1953C81.2568 46.4688 81.1201 46.7422 81.029 47.0156C80.6644 47.5625 80.4821 47.9271 80.4821 48.1094C80.5732 48.2005 80.5277 48.3372 80.3454 48.5195C80.3454 49.2487 80.2998 49.7044 80.2087 49.8867C80.1175 49.9779 79.9808 50.0234 79.7985 50.0234C79.3428 51.4818 78.9326 52.3021 78.568 52.4844C78.4769 53.2135 78.4313 53.6237 78.4313 53.7148C78.5225 53.806 78.568 53.8971 78.568 53.9883C78.568 54.3529 78.4769 54.7174 78.2946 55.082C78.2035 55.3555 78.249 55.6289 78.4313 55.9023C77.9756 56.1758 77.8389 56.5404 78.0212 56.9961C78.2035 57.3607 78.249 57.7708 78.1579 58.2266C77.7933 59.0469 77.5654 59.5482 77.4743 59.7305C77.4743 59.9128 77.2464 59.9583 76.7907 59.8672C76.973 60.2318 77.1097 60.5964 77.2009 60.9609C77.292 61.2344 77.2464 61.599 77.0641 62.0547C76.6084 62.7839 76.4717 63.2396 76.654 63.4219C76.8363 63.513 76.9274 63.6497 76.9274 63.832C76.7451 64.0143 76.5628 64.2422 76.3805 64.5156C76.1982 64.6979 75.9704 64.8802 75.6969 65.0625C75.6969 65.974 75.6058 66.4297 75.4235 66.4297C75.3324 66.3385 75.3324 66.3841 75.4235 66.5664C75.3324 67.1133 75.1956 67.569 75.0134 67.9336C74.9222 68.2982 74.9222 68.7995 75.0134 69.4375C74.9222 70.349 74.7855 70.8958 74.6032 71.0781C74.512 71.1693 74.3753 71.306 74.193 71.4883C74.5576 72.2174 74.6032 72.9466 74.3298 73.6758C74.0563 74.4049 73.8285 75.1341 73.6462 75.8633C73.6462 76.8659 73.4183 77.6406 72.9626 78.1875C72.5068 78.7344 72.1878 79.2812 72.0055 79.8281C72.0055 80.1016 72.0511 80.3294 72.1423 80.5117C72.3245 80.694 72.4157 80.9674 72.4157 81.332C71.6865 82.0612 71.4131 82.5169 71.5954 82.6992C71.8688 82.8815 72.0055 83.1549 72.0055 83.5195C71.8232 83.9753 71.641 84.3398 71.4587 84.6133C71.3675 84.8867 71.4131 85.1146 71.5954 85.2969C71.4131 86.4818 71.2308 87.2565 71.0485 87.6211C70.9574 87.8945 71.0029 88.1224 71.1852 88.3047C70.8206 88.9427 70.5928 89.444 70.5016 89.8086C70.4105 90.082 70.2738 90.401 70.0915 90.7656C71.0029 91.4948 71.7321 91.9505 72.279 92.1328C72.8259 92.224 73.4183 92.224 74.0563 92.1328C75.0589 91.9505 75.6058 91.9049 75.6969 91.9961C75.7881 91.9961 75.9248 91.9961 76.1071 91.9961C77.2009 91.8138 77.7477 91.7682 77.7477 91.8594C77.8389 91.8594 77.93 91.8594 78.0212 91.8594C79.1149 91.8594 79.6618 91.8594 79.6618 91.8594C79.7529 91.7682 79.8897 91.7227 80.0719 91.7227C80.2542 91.8138 80.5732 91.9505 81.029 92.1328C81.5759 92.224 81.986 92.1328 82.2594 91.8594C82.5329 92.1328 82.8063 92.224 83.0798 92.1328C83.3532 91.9505 83.7178 91.8594 84.1735 91.8594C84.8115 92.0417 85.2217 92.0872 85.404 91.9961C85.6774 91.9049 85.9053 91.8594 86.0876 91.8594C87.0902 92.0417 87.7282 92.0872 88.0016 91.9961C88.3662 91.9049 88.7764 91.8594 89.2321 91.8594C89.5055 91.7682 89.779 91.7682 90.0524 91.8594C90.3259 91.9505 90.6449 91.9505 91.0094 91.8594C92.3766 91.7682 93.3337 91.7227 93.8805 91.7227C94.4274 91.6315 94.9743 91.6771 95.5212 91.8594C95.6123 91.5859 95.6123 91.3125 95.5212 91.0391C95.43 90.7656 95.43 90.4922 95.5212 90.2188C95.5212 89.4896 95.6123 88.806 95.7946 88.168C96.068 87.4388 96.1136 86.8008 95.9313 86.2539C96.0225 85.1602 96.068 84.2031 96.068 83.3828C96.1592 82.5625 96.4326 81.9245 96.8884 81.4688C96.6149 81.2865 96.5238 81.013 96.6149 80.6484C96.7061 80.1927 96.7972 79.7826 96.8884 79.418C96.8884 78.5065 96.8428 77.8685 96.7516 77.5039C96.7516 77.1393 96.7972 76.7747 96.8884 76.4102C96.9795 76.2279 97.0251 75.7721 97.0251 75.043C97.0251 74.3138 97.0706 73.9036 97.1618 73.8125C97.0706 72.8099 97.0251 72.2174 97.0251 72.0352C97.0251 71.8529 97.0706 71.6706 97.1618 71.4883C97.4352 70.4857 97.5264 69.9388 97.4352 69.8477C97.4352 69.7565 97.4352 69.6198 97.4352 69.4375C97.4352 69.3464 97.4352 69.1185 97.4352 68.7539C97.4352 68.3893 97.4808 68.0703 97.5719 67.7969C97.7542 67.0677 97.7998 66.612 97.7087 66.4297C97.7087 66.1562 97.7542 65.8828 97.8454 65.6094C98.0277 65.0625 98.0732 64.7435 97.9821 64.6523C97.9821 64.4701 97.9821 64.2878 97.9821 64.1055C97.9821 63.832 98.0277 63.6042 98.1188 63.4219C98.3011 63.1484 98.3467 62.875 98.2555 62.6016C98.6201 61.9635 98.7113 61.6445 98.529 61.6445C98.4378 61.5534 98.4378 61.3255 98.529 60.9609C98.529 59.8672 98.5745 59.1836 98.6657 58.9102C98.848 58.5456 98.9847 58.1354 99.0759 57.6797C99.167 57.224 99.2126 56.8138 99.2126 56.4492C99.2126 56.0846 99.3493 55.7201 99.6227 55.3555C99.5316 54.7174 99.486 54.1706 99.486 53.7148L99.6227 50.9805C99.9873 50.2513 100.17 49.7956 100.17 49.6133C100.17 49.431 100.17 49.2487 100.17 49.0664C100.17 48.0638 100.352 47.2891 100.716 46.7422C100.625 46.013 100.625 45.4661 100.716 45.1016C100.808 44.737 100.762 44.4635 100.58 44.2812C100.762 43.5521 100.899 43.0508 100.99 42.7773C101.081 42.5039 101.081 42.1393 100.99 41.6836C101.446 40.3164 101.582 39.2682 101.4 38.5391C101.309 37.8099 101.537 37.2174 102.084 36.7617C101.993 36.0326 101.901 35.5768 101.81 35.3945C101.719 35.1211 101.674 34.9388 101.674 34.8477C101.947 34.0273 102.038 33.3438 101.947 32.7969C102.403 31.7031 102.585 30.974 102.494 30.6094C102.494 30.1536 102.585 29.7435 102.767 29.3789C103.132 28.5586 103.269 28.0573 103.177 27.875C103.177 27.6927 103.177 27.4193 103.177 27.0547C103.36 26.7812 103.451 26.5078 103.451 26.2344C103.451 25.9609 103.451 25.7331 103.451 25.5508C103.633 24.7305 103.679 24.2747 103.588 24.1836C103.588 24.0924 103.633 23.9557 103.724 23.7734C103.998 23.3177 104.18 22.9531 104.271 22.6797C104.362 22.4062 104.362 22.1784 104.271 21.9961C104.545 21.5404 104.636 21.0391 104.545 20.4922C105.091 19.125 105.274 18.2591 105.091 17.8945C105 17.4388 105 17.0742 105.091 16.8008C104.636 16.6185 104.134 16.6185 103.588 16.8008C103.041 16.8919 102.448 16.9831 101.81 17.0742ZM142.552 91.7227C142.279 90.7201 142.051 90.2188 141.869 90.2188C141.778 90.1276 141.687 89.9909 141.595 89.8086C141.231 88.9883 141.003 88.5326 140.912 88.4414C140.547 87.7122 140.274 87.2565 140.091 87.0742C140 86.8919 139.864 86.6641 139.681 86.3906C139.043 86.1172 138.633 85.8438 138.451 85.5703C138.36 85.2969 138.132 85.1602 137.767 85.1602C137.95 84.6133 137.858 84.1576 137.494 83.793C137.129 83.4284 136.81 83.1549 136.537 82.9727C136.263 82.3346 136.035 81.8789 135.853 81.6055C135.671 81.2409 135.489 80.8763 135.306 80.5117C135.124 80.2383 134.896 80.0104 134.623 79.8281C134.349 79.5547 134.121 79.1901 133.939 78.7344C133.666 78.5521 133.392 78.3242 133.119 78.0508C132.845 77.7773 132.618 77.4128 132.435 76.957C131.706 76.0456 131.296 75.5898 131.205 75.5898C131.114 75.4987 131.022 75.362 130.931 75.1797C130.749 74.9062 130.612 74.5872 130.521 74.2227C130.43 73.7669 130.157 73.4479 129.701 73.2656C129.61 72.6276 129.336 72.1719 128.881 71.8984C128.334 71.0781 128.015 70.6224 127.924 70.5312C127.832 70.349 127.696 70.3034 127.513 70.3945C127.24 69.7565 127.012 69.3919 126.83 69.3008C126.739 69.1185 126.602 68.9818 126.42 68.8906C126.42 68.2526 126.283 67.7513 126.009 67.3867C125.736 67.0221 125.463 66.6576 125.189 66.293C125.371 65.8372 125.28 65.5638 124.916 65.4727C124.642 65.2904 124.597 65.0169 124.779 64.6523C124.414 64.4701 124.187 64.151 124.095 63.6953C124.004 63.2396 123.868 62.7839 123.685 62.3281C123.321 61.4167 123.093 60.7786 123.002 60.4141C122.91 60.0495 122.865 59.6393 122.865 59.1836C122.865 58.2721 122.865 57.8164 122.865 57.8164C122.956 57.7253 123.002 57.6341 123.002 57.543L123.275 55.4922C123.64 54.2161 123.959 53.5781 124.232 53.5781C124.323 53.1224 124.597 52.5755 125.052 51.9375C125.69 51.2083 126.055 50.7982 126.146 50.707C126.328 50.5247 126.511 50.2969 126.693 50.0234C127.24 49.5677 127.65 49.2487 127.924 49.0664C128.288 48.793 128.562 48.474 128.744 48.1094C129.291 47.7448 129.655 47.3802 129.838 47.0156C130.202 47.0156 130.43 46.8789 130.521 46.6055C130.612 46.332 130.886 46.2409 131.341 46.332C131.341 45.8763 131.433 45.6029 131.615 45.5117C131.888 45.3294 132.116 45.1471 132.299 44.9648C133.757 44.418 134.577 43.9167 134.759 43.4609C135.671 43.1875 136.218 43.0052 136.4 42.9141C137.038 42.7318 137.676 42.4128 138.314 41.957C139.408 41.6836 140.091 41.5469 140.365 41.5469C140.638 41.5469 140.912 41.5013 141.185 41.4102C142.097 40.9544 142.689 40.681 142.963 40.5898C143.327 40.4076 143.692 40.3164 144.056 40.3164C145.15 40.4076 145.834 40.4076 146.107 40.3164C146.472 40.1341 146.836 40.043 147.201 40.043C147.383 40.043 147.611 40.0885 147.884 40.1797C148.249 40.1797 148.568 40.1797 148.841 40.1797C149.662 40.2708 150.163 40.362 150.345 40.4531C150.619 40.5443 150.892 40.5898 151.166 40.5898C151.348 40.8633 151.576 41.0456 151.849 41.1367C152.214 41.2279 152.578 41.319 152.943 41.4102C153.581 42.1393 154.174 42.6406 154.72 42.9141C155.267 43.2786 155.586 43.5977 155.677 43.8711C155.769 44.0534 155.951 44.1445 156.224 44.1445C156.224 44.6914 156.315 45.2839 156.498 45.9219C156.771 46.4688 156.999 46.9701 157.181 47.4258C157.364 48.3372 157.455 48.9753 157.455 49.3398C157.546 49.6133 157.683 49.8867 157.865 50.1602C157.865 51.1628 157.683 51.8008 157.318 52.0742C156.953 52.2565 156.817 52.7122 156.908 53.4414C156.27 53.806 155.86 54.5807 155.677 55.7656C155.222 55.5833 154.903 55.5833 154.72 55.7656C154.538 55.9479 154.265 56.0846 153.9 56.1758C153.262 56.8138 152.897 57.3151 152.806 57.6797C152.806 57.9531 152.624 58.0898 152.259 58.0898C151.257 58.6367 150.664 59.0013 150.482 59.1836C150.3 59.3659 150.118 59.5482 149.935 59.7305C149.479 59.9128 149.115 60.1406 148.841 60.4141C148.659 60.5964 148.34 60.7331 147.884 60.8242C147.702 60.3685 147.474 60.0495 147.201 59.8672C146.927 59.5938 146.654 59.3203 146.381 59.0469C146.563 57.9531 146.654 57.4062 146.654 57.4062C146.836 56.6771 147.019 56.2214 147.201 56.0391C147.474 55.7656 147.657 55.4466 147.748 55.082C147.474 53.8971 147.338 53.168 147.338 52.8945C147.338 52.5299 147.246 52.1654 147.064 51.8008C146.882 51.6185 146.654 51.4362 146.381 51.2539C146.198 50.9805 146.198 50.707 146.381 50.4336C145.925 50.4336 145.606 50.2969 145.424 50.0234C145.332 49.75 145.059 49.7044 144.603 49.8867C144.421 49.3398 144.011 49.0664 143.373 49.0664C142.735 48.9753 142.279 48.7018 142.006 48.2461C141.003 48.3372 140.319 48.4284 139.955 48.5195C139.681 48.6107 139.362 48.6562 138.998 48.6562C138.633 48.6562 138.177 48.6562 137.631 48.6562C137.084 48.5651 136.582 48.6107 136.127 48.793C135.671 48.9753 135.261 49.2031 134.896 49.4766C134.532 49.75 134.076 49.8867 133.529 49.8867C132.8 51.0716 132.299 51.9375 132.025 52.4844C132.025 53.2135 131.979 53.7604 131.888 54.125C131.888 54.4896 131.797 54.763 131.615 54.9453C131.797 55.2188 131.934 55.4922 132.025 55.7656C132.207 56.0391 132.435 56.2669 132.709 56.4492C133.073 57.3607 133.483 58.1354 133.939 58.7734C134.486 59.3203 134.851 59.9583 135.033 60.6875C135.489 60.9609 135.808 61.3255 135.99 61.7812C136.172 62.237 136.491 62.6016 136.947 62.875C137.312 63.6953 137.631 64.1966 137.904 64.3789C138.177 65.1992 138.542 65.7461 138.998 66.0195C139.636 67.0221 140 67.569 140.091 67.6602C140.183 67.7513 140.183 67.888 140.091 68.0703C140.547 68.7083 140.866 69.1185 141.049 69.3008C141.231 69.4831 141.368 69.8021 141.459 70.2578C141.732 70.4401 141.96 70.668 142.142 70.9414C142.416 71.1237 142.689 71.306 142.963 71.4883C143.054 71.8529 143.145 72.1263 143.236 72.3086C143.418 72.4909 143.509 72.7188 143.509 72.9922C143.874 73.6302 144.102 73.9948 144.193 74.0859C144.375 74.1771 144.558 74.3138 144.74 74.4961C144.922 74.7695 145.059 75.043 145.15 75.3164C145.332 75.5898 145.606 75.8177 145.97 76C145.97 76.9115 146.062 77.3216 146.244 77.2305C146.426 77.1393 146.563 77.1849 146.654 77.3672C146.836 77.6406 147.019 77.8685 147.201 78.0508C147.474 78.2331 147.702 78.4609 147.884 78.7344C148.249 79.4635 148.568 79.9648 148.841 80.2383C149.115 80.4206 149.343 80.7396 149.525 81.1953C150.072 82.0156 150.437 82.4258 150.619 82.4258C150.892 83.0638 151.075 83.7474 151.166 84.4766C151.348 85.1146 151.804 85.5247 152.533 85.707C152.624 86.5273 152.806 87.0742 153.08 87.3477C153.718 88.168 153.991 88.5781 153.9 88.5781C153.9 88.5781 153.946 88.6237 154.037 88.7148C154.584 89.5352 154.857 90.0365 154.857 90.2188C154.857 90.401 154.903 90.5833 154.994 90.7656C155.358 91.4036 155.677 91.8138 155.951 91.9961C156.224 92.9987 156.361 93.5911 156.361 93.7734C156.726 94.5938 156.908 95.0951 156.908 95.2773C156.999 95.4596 156.953 95.5508 156.771 95.5508C157.227 96.1888 157.455 97.0091 157.455 98.0117C157.455 99.0143 157.5 99.7891 157.591 100.336C157.045 101.247 156.817 101.749 156.908 101.84C157.09 101.931 157.136 102.113 157.045 102.387C156.862 102.842 156.68 103.298 156.498 103.754C156.407 104.21 156.088 104.483 155.541 104.574C155.085 105.577 154.812 106.124 154.72 106.215C154.72 106.306 154.629 106.397 154.447 106.488C153.991 107.4 153.627 107.947 153.353 108.129C153.171 108.311 153.08 108.585 153.08 108.949C152.624 109.496 152.351 109.815 152.259 109.906C152.168 109.997 152.168 110.134 152.259 110.316C151.53 110.499 151.029 110.818 150.756 111.273C150.573 111.82 150.118 112.139 149.388 112.23C149.115 113.507 148.477 114.19 147.474 114.281C146.745 115.01 146.289 115.512 146.107 115.785C145.925 116.059 145.743 116.332 145.56 116.605C144.831 116.879 144.33 117.152 144.056 117.426C143.874 117.699 143.646 117.973 143.373 118.246L141.869 119.203C141.687 119.568 141.413 119.796 141.049 119.887C140.775 119.978 140.502 120.115 140.228 120.297C139.408 120.935 138.952 121.299 138.861 121.391C138.861 121.482 138.77 121.527 138.588 121.527C137.129 121.801 135.99 122.074 135.17 122.348C134.349 122.621 133.438 122.94 132.435 123.305C131.615 123.031 131.159 122.94 131.068 123.031C131.068 123.122 131.022 123.168 130.931 123.168C130.293 122.895 129.838 122.803 129.564 122.895C129.291 123.077 129.063 123.031 128.881 122.758C128.334 122.849 127.832 122.895 127.377 122.895C127.012 122.986 126.602 122.986 126.146 122.895C125.508 122.348 125.052 122.074 124.779 122.074C124.05 121.618 123.503 121.391 123.138 121.391C122.774 121.482 122.364 121.436 121.908 121.254C121.726 120.798 121.407 120.479 120.951 120.297C120.586 120.115 120.222 119.796 119.857 119.34C119.401 118.428 119.128 117.927 119.037 117.836C118.854 117.745 118.672 117.608 118.49 117.426C118.034 116.514 117.806 116.013 117.806 115.922C117.715 115.922 117.624 115.831 117.533 115.648C117.168 114.737 117.077 114.236 117.259 114.145C117.351 114.145 117.351 113.962 117.259 113.598C117.077 113.415 117.032 113.188 117.123 112.914C117.123 112.641 117.077 112.276 116.986 111.82C116.804 111.091 116.713 110.635 116.713 110.453C116.713 110.271 116.758 110.089 116.849 109.906C116.849 108.995 116.895 108.493 116.986 108.402C117.077 108.311 117.123 108.174 117.123 107.992C117.214 107.628 117.259 107.263 117.259 106.898C117.259 106.534 117.305 106.215 117.396 105.941C118.216 104.483 118.718 103.435 118.9 102.797C119.082 102.068 119.493 101.612 120.131 101.43C120.222 100.974 120.541 100.382 121.088 99.6523C121.452 99.0143 121.908 98.513 122.455 98.1484L123.549 96.7812C124.187 96.3255 124.551 96.0065 124.642 95.8242C124.825 95.6419 125.144 95.5964 125.599 95.6875C126.602 94.776 127.149 94.3203 127.24 94.3203C127.422 94.2292 127.787 94.2747 128.334 94.457C128.151 94.8216 127.969 95.2318 127.787 95.6875C127.696 96.0521 127.741 96.4167 127.924 96.7812C127.285 97.6927 126.966 98.194 126.966 98.2852C126.966 98.3763 126.921 98.4674 126.83 98.5586C126.556 99.0143 126.374 99.3333 126.283 99.5156C126.192 99.6979 126.055 99.9258 125.873 100.199C125.508 101.02 125.326 101.475 125.326 101.566C125.417 101.658 125.463 101.794 125.463 101.977C125.28 102.979 125.189 103.48 125.189 103.48C125.28 103.48 125.326 103.526 125.326 103.617C125.417 104.62 125.417 105.167 125.326 105.258C125.326 105.258 125.326 105.303 125.326 105.395C125.508 105.941 125.554 106.352 125.463 106.625C125.463 106.898 125.554 107.126 125.736 107.309C125.645 108.22 125.736 108.721 126.009 108.812C126.101 109.086 126.192 109.359 126.283 109.633C126.374 109.906 126.42 110.18 126.42 110.453C127.24 111.182 127.832 111.729 128.197 112.094C128.562 112.458 129.108 112.641 129.838 112.641C130.567 113.461 131.022 113.826 131.205 113.734C131.478 113.734 131.797 113.734 132.162 113.734C132.709 113.917 133.301 114.099 133.939 114.281C134.577 114.464 135.124 114.6 135.58 114.691C136.491 114.418 137.129 114.372 137.494 114.555C138.132 114.464 138.633 114.464 138.998 114.555C139.453 114.646 139.909 114.646 140.365 114.555C140.729 114.372 141.049 114.145 141.322 113.871C141.595 113.689 141.96 113.552 142.416 113.461C143.236 113.005 143.692 112.549 143.783 112.094C143.965 111.729 144.284 111.547 144.74 111.547C145.469 110.544 145.879 109.952 145.97 109.77C146.153 109.587 146.381 109.451 146.654 109.359C146.745 108.995 146.836 108.721 146.927 108.539C147.11 108.357 147.246 108.129 147.338 107.855C147.338 106.853 147.338 106.306 147.338 106.215C147.429 106.124 147.474 105.987 147.474 105.805C147.657 104.164 147.657 102.979 147.474 102.25C147.383 101.521 147.246 100.883 147.064 100.336C146.791 99.5156 146.563 99.0143 146.381 98.832C146.289 98.5586 146.153 98.3307 145.97 98.1484C145.879 97.3281 145.697 96.8268 145.424 96.6445C145.15 96.3711 145.013 96.0065 145.013 95.5508C144.558 94.3659 143.965 93.6823 143.236 93.5L142.552 91.7227ZM247.416 6.82031C248.327 7.09375 248.874 7.1849 249.056 7.09375C249.33 7.0026 249.558 7.0026 249.74 7.09375C250.925 7.54948 251.882 7.77734 252.611 7.77734C252.884 8.05078 253.158 8.1875 253.431 8.1875C253.796 8.1875 254.115 8.23307 254.388 8.32422C255.209 8.87109 255.664 9.14453 255.756 9.14453C256.667 9.41797 257.396 9.64583 257.943 9.82812C258.49 9.91927 258.991 10.1016 259.447 10.375C259.812 10.5573 260.131 10.7396 260.404 10.9219C260.677 11.1042 261.042 11.1953 261.498 11.1953C262.865 12.0156 264.05 12.6992 265.052 13.2461C265.235 13.4284 265.417 13.6107 265.599 13.793C265.782 13.9753 266.101 14.0664 266.556 14.0664C266.739 14.6133 267.149 14.9779 267.787 15.1602C268.425 16.0716 268.789 16.4818 268.881 16.3906C268.972 16.2083 269.108 16.2083 269.291 16.3906C269.655 16.7552 269.974 17.1654 270.248 17.6211C270.521 18.0768 271.022 18.3047 271.752 18.3047C272.481 19.0339 273.21 19.5807 273.939 19.9453C274.213 20.5833 274.577 20.9479 275.033 21.0391C275.306 21.6771 275.716 22.0417 276.263 22.1328C276.446 22.3151 276.537 22.5885 276.537 22.9531C276.537 23.3177 276.765 23.4544 277.22 23.3633C277.038 24.1836 277.084 24.6393 277.357 24.7305C277.722 24.8216 277.858 25.0951 277.767 25.5508C278.132 25.9154 278.451 26.3255 278.724 26.7812C279.089 27.1458 279.362 27.6471 279.545 28.2852C280.365 29.1055 280.775 29.6979 280.775 30.0625C280.775 30.4271 280.821 30.7461 280.912 31.0195C281.368 31.931 281.595 32.569 281.595 32.9336C281.595 33.2982 281.595 33.6172 281.595 33.8906C281.687 34.8932 281.778 35.4857 281.869 35.668C281.96 35.7591 281.914 35.8958 281.732 36.0781C282.279 36.9896 282.552 37.6276 282.552 37.9922C282.644 38.3568 282.598 38.8125 282.416 39.3594C282.051 40.1797 281.869 40.7721 281.869 41.1367C281.96 41.5013 281.823 41.7747 281.459 41.957C281.55 42.1393 281.55 42.4583 281.459 42.9141C281.459 43.3698 281.368 43.7344 281.185 44.0078C281.185 45.0104 281.14 45.694 281.049 46.0586C281.049 46.4232 280.866 46.6966 280.502 46.8789C280.046 48.0638 279.818 48.9753 279.818 49.6133C279.453 50.707 279.089 51.3451 278.724 51.5273C278.451 51.7096 278.314 52.0286 278.314 52.4844C278.132 53.5781 277.904 54.1706 277.631 54.2617C277.357 54.2617 277.129 54.3529 276.947 54.5352C276.309 55.3555 275.944 55.7656 275.853 55.7656C275.58 56.4948 275.443 56.9961 275.443 57.2695C275.443 57.4518 275.261 57.4974 274.896 57.4062C274.623 57.6797 274.304 57.9531 273.939 58.2266C273.666 58.5 273.392 58.819 273.119 59.1836C272.754 59.7305 272.481 60.0495 272.299 60.1406C272.207 60.2318 272.207 60.4141 272.299 60.6875C271.66 61.1432 271.159 61.4622 270.795 61.6445C270.43 61.8268 270.202 62.1458 270.111 62.6016C269.2 62.9661 268.698 63.4219 268.607 63.9688L267.24 64.7891C266.42 65.5182 265.827 65.8828 265.463 65.8828C265.189 65.8828 264.825 65.974 264.369 66.1562C264.004 66.612 263.503 66.931 262.865 67.1133C262.318 67.2956 261.908 67.7057 261.634 68.3438C260.905 68.2526 260.45 68.4349 260.267 68.8906C260.176 69.3464 259.766 69.5286 259.037 69.4375C258.125 69.8932 257.578 70.2122 257.396 70.3945C257.214 70.4857 256.94 70.4857 256.576 70.3945C255.847 70.668 255.437 70.7591 255.345 70.668C255.254 70.5768 255.118 70.5312 254.935 70.5312C254.571 70.6224 254.297 70.7591 254.115 70.9414C253.933 71.0326 253.705 71.1237 253.431 71.2148C252.793 71.306 252.246 71.2148 251.791 70.9414C251.608 71.1237 251.381 71.2604 251.107 71.3516C250.834 71.3516 250.606 71.4427 250.424 71.625C249.239 71.3516 248.282 71.2604 247.552 71.3516C246.823 71.3516 246.322 71.2148 246.049 70.9414C245.228 71.1237 244.772 71.1693 244.681 71.0781C244.681 70.8958 244.59 70.7591 244.408 70.668C243.861 70.5768 243.269 70.5312 242.631 70.5312C242.357 70.2578 241.993 70.0299 241.537 69.8477C241.172 69.6654 240.762 69.4831 240.306 69.3008C239.486 68.3893 238.985 67.7969 238.802 67.5234C238.62 67.1589 238.347 66.8854 237.982 66.7031L237.025 64.9258C236.752 64.1055 236.569 63.6953 236.478 63.6953C236.387 63.6042 236.296 63.4674 236.205 63.2852C236.022 62.7383 235.977 62.1458 236.068 61.5078C236.159 60.7786 236.114 60.1406 235.931 59.5938C236.296 58.9557 236.433 58.5911 236.341 58.5C236.341 58.3177 236.341 58.1354 236.341 57.9531C236.706 57.0417 236.979 56.5859 237.162 56.5859C237.071 56.2214 237.116 55.9935 237.299 55.9023C237.481 55.8112 237.572 55.5378 237.572 55.082C238.028 54.5352 238.301 54.2161 238.392 54.125C238.575 53.9427 238.757 53.7148 238.939 53.4414C239.304 53.6237 239.577 53.5781 239.759 53.3047C240.033 53.0312 240.261 52.7578 240.443 52.4844L241.947 51.6641C242.95 51.1172 243.496 50.8893 243.588 50.9805C243.679 50.9805 243.77 50.9805 243.861 50.9805C244.226 50.8893 244.499 50.7982 244.681 50.707C244.955 50.6159 245.228 50.6615 245.502 50.8438C245.684 51.026 245.775 51.2995 245.775 51.6641C245.866 52.0286 245.957 52.3021 246.049 52.4844C245.319 53.3047 244.909 53.7148 244.818 53.7148C244.909 54.6263 245 55.2643 245.091 55.6289C245.183 55.9023 245.228 56.2214 245.228 56.5859C245.228 57.7708 245.41 58.6367 245.775 59.1836C246.231 59.6393 246.595 60.1406 246.869 60.6875C247.325 61.1432 247.552 61.4167 247.552 61.5078C247.644 61.599 247.735 61.7357 247.826 61.918C248.282 61.918 248.646 62.0547 248.92 62.3281C249.284 62.5104 249.74 62.556 250.287 62.4648C251.016 63.1029 251.426 63.4219 251.517 63.4219C251.7 63.4219 251.927 63.4674 252.201 63.5586C252.839 63.832 253.203 63.9688 253.295 63.9688C253.477 63.8776 253.659 63.8776 253.841 63.9688C254.388 64.2422 254.799 64.4245 255.072 64.5156C255.437 64.6068 255.801 64.6523 256.166 64.6523C257.351 64.1966 258.125 64.0143 258.49 64.1055C258.946 64.1966 259.401 64.151 259.857 63.9688C260.131 63.7865 260.358 63.6953 260.541 63.6953C260.814 63.6042 261.088 63.4674 261.361 63.2852C261.817 63.1029 262.272 62.9661 262.728 62.875C263.184 62.7839 263.503 62.5104 263.685 62.0547C264.779 61.7812 265.417 61.5078 265.599 61.2344C265.873 60.8698 266.237 60.5964 266.693 60.4141C267.058 59.8672 267.331 59.3203 267.513 58.7734C267.787 58.1354 268.243 57.6797 268.881 57.4062C268.789 56.6771 268.835 56.2669 269.017 56.1758C269.2 56.0846 269.382 55.9479 269.564 55.7656C269.655 54.9453 269.746 54.4896 269.838 54.3984C269.929 54.2161 270.065 53.9883 270.248 53.7148C270.612 52.8034 270.84 52.3477 270.931 52.3477C271.022 52.2565 271.068 52.1654 271.068 52.0742C270.977 51.4362 270.977 51.0716 271.068 50.9805C271.25 50.8893 271.25 50.7526 271.068 50.5703C271.25 50.388 271.341 50.1602 271.341 49.8867C271.433 49.6133 271.569 49.3854 271.752 49.2031C271.66 48.6562 271.66 48.2917 271.752 48.1094C271.843 47.8359 271.979 47.4714 272.162 47.0156C271.979 46.1953 271.979 45.7852 272.162 45.7852C272.435 45.694 272.526 45.5117 272.435 45.2383C272.526 44.7826 272.481 44.5547 272.299 44.5547C272.116 44.4635 272.116 44.1901 272.299 43.7344C272.481 43.0964 272.572 42.6406 272.572 42.3672C272.663 42.0938 272.663 41.8203 272.572 41.5469C272.39 40.8177 272.344 40.4076 272.435 40.3164C272.526 40.2253 272.526 40.043 272.435 39.7695C272.253 37.3997 271.752 35.987 270.931 35.5312C270.84 34.6198 270.658 34.0729 270.384 33.8906C270.111 33.6172 269.883 33.4349 269.701 33.3438C269.336 32.0677 268.972 31.3385 268.607 31.1562C268.334 30.8828 268.151 30.5182 268.06 30.0625C267.696 29.3333 267.422 28.8776 267.24 28.6953C266.511 28.0573 266.055 27.7383 265.873 27.7383C265.69 27.6471 265.645 27.4648 265.736 27.1914C265.098 26.4622 264.46 25.8242 263.822 25.2773C263.275 24.7305 262.637 24.2292 261.908 23.7734C261.27 23.0443 260.86 22.6341 260.677 22.543C260.586 22.3607 260.313 22.2695 259.857 22.2695C259.128 21.7227 258.627 21.3581 258.353 21.1758C258.171 20.9935 257.852 20.8568 257.396 20.7656C256.758 19.9453 256.394 19.5807 256.302 19.6719C256.211 19.763 256.075 19.8086 255.892 19.8086C255.619 19.3529 255.163 19.125 254.525 19.125C254.069 18.3047 253.203 17.8945 251.927 17.8945C251.654 17.4388 251.153 17.2109 250.424 17.2109C250.241 17.0286 249.968 16.8919 249.603 16.8008C249.239 16.6185 248.965 16.3451 248.783 15.9805C248.054 15.8893 247.552 15.8438 247.279 15.8438C247.097 15.8438 246.96 15.7526 246.869 15.5703L244.818 15.2969C243.907 15.1146 243.086 14.8867 242.357 14.6133C241.628 14.6133 241.172 14.5677 240.99 14.4766C240.808 14.2943 240.534 14.2487 240.17 14.3398C238.802 14.5221 237.845 14.6133 237.299 14.6133C236.752 14.5221 236.25 14.4766 235.795 14.4766C234.61 14.6589 233.607 14.5677 232.787 14.2031C232.058 14.2943 231.374 14.431 230.736 14.6133C230.189 14.7956 229.642 14.7956 229.095 14.6133C228.093 14.8867 227.591 15.069 227.591 15.1602C227.591 15.2513 227.5 15.2969 227.318 15.2969C226.771 15.2969 226.407 15.3424 226.224 15.4336C226.042 15.5247 225.769 15.6159 225.404 15.707C224.766 15.8893 223.854 16.0716 222.67 16.2539C221.758 16.5273 221.075 16.6641 220.619 16.6641C220.163 16.9375 219.753 17.0742 219.388 17.0742C219.115 16.9831 218.887 17.0286 218.705 17.2109C217.793 17.7578 217.155 18.0768 216.791 18.168C216.517 18.2591 216.289 18.4414 216.107 18.7148C214.922 18.806 213.965 19.125 213.236 19.6719C212.598 20.1276 211.778 20.5378 210.775 20.9023C209.772 21.3581 209.226 21.6315 209.134 21.7227C209.134 21.8138 209.043 21.9049 208.861 21.9961C208.041 22.1784 207.585 22.4062 207.494 22.6797C206.674 23.1354 206.172 23.4089 205.99 23.5C205.899 23.5911 205.671 23.5911 205.306 23.5C205.124 23.6823 204.896 23.8646 204.623 24.0469C204.349 24.138 204.076 24.2747 203.802 24.457C202.982 25.0951 202.526 25.4596 202.435 25.5508C201.433 26.0065 200.931 26.2344 200.931 26.2344C200.293 26.5078 199.929 26.918 199.838 27.4648C199.473 27.556 199.2 27.6927 199.017 27.875C198.835 28.0573 198.607 28.2396 198.334 28.4219C197.058 29.2422 196.237 29.7891 195.873 30.0625C195.417 30.3359 195.052 30.6094 194.779 30.8828C194.597 31.1562 194.323 31.3385 193.959 31.4297C193.412 32.1589 193.047 32.6146 192.865 32.7969C192.683 32.888 192.409 33.0247 192.045 33.207C191.498 33.8451 191.133 34.2096 190.951 34.3008C190.769 34.3919 190.677 34.3464 190.677 34.1641C189.948 34.8932 189.493 35.3034 189.31 35.3945C189.128 35.4857 188.854 35.5768 188.49 35.668C187.852 36.1237 187.396 36.5794 187.123 37.0352C186.849 37.3997 186.485 37.6732 186.029 37.8555C185.938 38.2201 185.847 38.5391 185.756 38.8125C185.664 38.9948 185.573 39.2227 185.482 39.4961C184.662 39.7695 184.252 40.043 184.252 40.3164C184.343 40.5898 184.206 40.681 183.841 40.5898C183.659 40.8633 183.431 41.1367 183.158 41.4102C182.884 41.6836 182.611 42.0026 182.338 42.3672C182.155 42.5495 182.019 42.7773 181.927 43.0508C181.836 43.3242 181.791 43.6888 181.791 44.1445C181.153 44.9648 180.469 45.6029 179.74 46.0586C179.558 46.5143 179.421 46.8333 179.33 47.0156C179.33 47.1979 179.147 47.3802 178.783 47.5625C178.783 48.6562 178.464 49.4766 177.826 50.0234C177.917 50.6615 177.826 51.1628 177.552 51.5273C177.279 51.8008 177.233 52.2565 177.416 52.8945C177.051 53.806 176.778 54.3984 176.595 54.6719C176.413 54.9453 176.322 55.3099 176.322 55.7656C175.775 56.3125 175.502 56.7227 175.502 56.9961C175.502 57.1784 175.41 57.3607 175.228 57.543C174.681 58.5456 174.453 59.0924 174.545 59.1836C174.727 59.2747 174.772 59.4115 174.681 59.5938C174.408 60.0495 174.271 60.4596 174.271 60.8242C174.362 61.0977 174.362 61.4622 174.271 61.918C173.815 62.9206 173.633 63.5586 173.724 63.832C173.815 64.0143 173.861 64.3333 173.861 64.7891C173.679 65.4271 173.588 65.7917 173.588 65.8828C173.679 65.974 173.724 66.1107 173.724 66.293C173.542 67.1133 173.496 67.6602 173.588 67.9336C173.679 68.207 173.679 68.4805 173.588 68.7539L173.177 70.8047C173.36 71.625 173.405 72.1263 173.314 72.3086C173.314 72.3997 173.314 72.5365 173.314 72.7188C173.314 73.0833 173.314 73.4023 173.314 73.6758C173.405 73.9492 173.451 74.2227 173.451 74.4961C173.269 75.043 173.223 75.4531 173.314 75.7266C173.405 75.9089 173.314 76.0456 173.041 76.1367C173.314 76.8659 173.314 77.4128 173.041 77.7773C173.405 78.1419 173.588 78.5521 173.588 79.0078C173.588 79.3724 173.542 79.8281 173.451 80.375C173.36 80.8307 173.269 81.332 173.177 81.8789C173.086 82.3346 173.177 82.7904 173.451 83.2461C173.542 84.2487 173.542 84.7956 173.451 84.8867C173.451 84.8867 173.451 84.9779 173.451 85.1602C173.633 85.5247 173.77 85.9349 173.861 86.3906C173.952 86.8464 174.089 87.2109 174.271 87.4844C174.089 87.849 174.043 88.2591 174.134 88.7148C174.317 89.1706 174.453 89.5807 174.545 89.9453C174.545 90.1276 174.545 90.401 174.545 90.7656C174.636 91.0391 174.59 91.2669 174.408 91.4492C174.59 91.7227 174.772 92.0417 174.955 92.4062C175.137 92.6797 175.365 92.9076 175.638 93.0898C175.547 93.5456 175.547 93.9102 175.638 94.1836C175.821 94.457 175.912 94.7305 175.912 95.0039C176.003 95.2773 176.094 95.5508 176.185 95.8242C176.368 96.0977 176.459 96.5078 176.459 97.0547C176.732 98.1484 177.051 98.7409 177.416 98.832C177.598 99.6523 177.689 100.199 177.689 100.473C178.236 101.384 178.418 101.885 178.236 101.977C178.145 102.068 178.099 102.25 178.099 102.523C178.646 103.435 179.102 104.027 179.466 104.301C179.831 104.483 180.15 104.802 180.424 105.258C180.332 105.987 180.469 106.534 180.834 106.898C181.289 107.263 181.381 107.764 181.107 108.402C181.836 109.04 182.201 109.451 182.201 109.633C182.201 109.815 182.292 109.861 182.474 109.77C182.383 110.408 182.429 110.909 182.611 111.273C183.431 111.82 183.978 112.139 184.252 112.23C184.616 113.324 184.89 113.962 185.072 114.145L185.756 115.512C185.938 115.785 186.12 115.967 186.302 116.059C186.485 116.241 186.667 116.423 186.849 116.605C186.758 117.152 186.804 117.471 186.986 117.562C187.259 117.654 187.305 117.836 187.123 118.109C188.034 119.112 188.991 119.887 189.994 120.434C190.541 121.163 190.996 121.573 191.361 121.664C191.726 121.846 191.953 122.165 192.045 122.621C192.774 123.35 193.275 123.806 193.549 123.988C194.916 124.809 195.736 125.492 196.009 126.039C196.374 126.586 196.83 126.996 197.377 127.27C197.832 127.999 198.106 128.363 198.197 128.363C198.379 128.454 198.607 128.5 198.881 128.5C199.154 128.956 199.473 129.366 199.838 129.73C200.202 130.095 200.521 130.505 200.795 130.961C201.159 131.508 201.524 131.736 201.888 131.645C202.253 131.645 202.39 131.781 202.299 132.055C203.028 132.602 203.62 132.921 204.076 133.012C204.623 133.194 205.124 133.422 205.58 133.695C205.944 134.151 206.263 134.379 206.537 134.379C206.901 134.47 207.084 134.607 207.084 134.789C208.36 135.336 209.134 135.746 209.408 136.02C209.681 136.384 210.137 136.521 210.775 136.43C211.778 136.703 212.416 136.931 212.689 137.113C212.963 137.296 213.282 137.432 213.646 137.523C214.102 137.888 214.421 138.116 214.603 138.207C214.785 138.298 215.013 138.435 215.287 138.617C216.016 138.526 216.426 138.572 216.517 138.754C216.608 138.936 216.745 139.027 216.927 139.027C218.203 139.301 218.978 139.483 219.252 139.574C220.528 139.939 221.166 140.121 221.166 140.121C221.986 140.395 222.487 140.531 222.67 140.531C222.943 140.714 223.262 140.759 223.627 140.668C223.991 140.668 224.31 140.805 224.584 141.078C225.769 140.987 226.361 141.169 226.361 141.625C226.543 141.352 226.771 141.26 227.045 141.352C227.318 141.443 227.591 141.488 227.865 141.488C228.321 141.488 228.776 141.443 229.232 141.352C229.688 141.352 230.189 141.397 230.736 141.488C231.739 141.671 232.377 141.716 232.65 141.625C233.015 141.534 233.334 141.579 233.607 141.762C234.519 141.579 235.157 141.488 235.521 141.488C235.886 141.488 236.25 141.443 236.615 141.352C237.435 141.534 237.937 141.579 238.119 141.488C238.301 141.397 238.483 141.306 238.666 141.215C239.213 141.033 239.759 140.987 240.306 141.078C240.853 141.169 241.446 141.169 242.084 141.078C243.086 140.896 243.679 140.714 243.861 140.531C244.772 140.622 245.274 140.668 245.365 140.668C246.185 140.486 246.687 140.395 246.869 140.395C247.142 140.486 247.416 140.486 247.689 140.395C248.601 140.212 249.239 140.03 249.603 139.848C250.788 139.574 251.517 139.346 251.791 139.164C252.064 139.073 252.429 139.073 252.884 139.164C253.249 138.982 253.614 138.799 253.978 138.617C254.434 138.526 254.89 138.389 255.345 138.207C256.439 137.842 257.032 137.615 257.123 137.523C257.214 137.432 257.351 137.387 257.533 137.387C258.171 137.022 258.535 136.749 258.627 136.566C258.809 136.475 258.991 136.384 259.174 136.293C260.267 135.746 261.042 135.336 261.498 135.062C261.953 134.88 262.409 134.652 262.865 134.379C264.05 133.65 264.916 132.921 265.463 132.191C266.374 131.462 266.83 130.961 266.83 130.688C266.83 130.505 266.966 130.46 267.24 130.551C267.787 130.004 268.106 129.639 268.197 129.457C268.288 129.366 268.47 129.32 268.744 129.32C269.2 128.591 269.519 128.09 269.701 127.816C269.883 127.634 270.202 127.452 270.658 127.27C271.387 126.632 271.934 126.221 272.299 126.039C272.754 125.948 273.256 125.948 273.802 126.039C274.349 126.495 274.349 126.951 273.802 127.406C273.347 127.862 273.028 128.363 272.845 128.91C272.39 129.366 272.025 129.639 271.752 129.73C271.569 129.822 271.433 130.049 271.341 130.414C270.065 130.87 269.291 131.645 269.017 132.738C268.562 132.829 268.243 133.012 268.06 133.285C267.969 133.65 267.787 133.969 267.513 134.242C266.784 134.88 266.328 135.199 266.146 135.199C265.964 135.29 265.873 135.518 265.873 135.883C264.87 136.247 264.323 136.521 264.232 136.703C264.141 136.977 264.004 137.204 263.822 137.387C263.002 137.842 262.591 138.207 262.591 138.48L260.267 139.848C260.085 140.03 259.812 140.212 259.447 140.395C259.174 140.577 258.946 140.85 258.763 141.215C257.761 141.579 257.168 141.762 256.986 141.762C256.804 141.853 256.576 141.898 256.302 141.898C255.938 141.898 255.664 142.035 255.482 142.309C255.391 142.582 255.254 142.81 255.072 142.992L253.295 143.812C253.021 143.995 252.748 144.132 252.474 144.223C252.201 144.314 251.973 144.451 251.791 144.633C250.97 145.089 250.424 145.316 250.15 145.316C249.877 145.408 249.649 145.544 249.466 145.727C248.646 145.818 248.145 145.863 247.963 145.863C247.871 145.863 247.735 145.909 247.552 146C246.459 146.729 245.775 147.094 245.502 147.094C245.319 147.094 245.091 147.185 244.818 147.367C244.089 147.549 243.588 147.686 243.314 147.777C242.22 147.868 241.582 147.868 241.4 147.777C241.218 147.777 241.081 147.777 240.99 147.777C240.625 147.96 240.352 148.142 240.17 148.324C239.987 148.507 239.759 148.734 239.486 149.008C239.03 148.826 238.575 148.78 238.119 148.871C237.754 148.962 237.299 149.053 236.752 149.145C236.296 149.145 235.795 149.053 235.248 148.871C234.792 148.78 234.336 148.826 233.881 149.008C233.516 149.008 233.197 149.099 232.924 149.281C232.65 149.555 232.377 149.783 232.103 149.965C231.101 149.6 230.189 149.646 229.369 150.102C229.187 149.919 228.868 149.828 228.412 149.828C228.047 149.828 227.683 149.919 227.318 150.102C226.589 149.828 226.088 149.691 225.814 149.691C225.632 149.783 225.404 149.828 225.131 149.828C224.219 149.464 223.718 149.372 223.627 149.555C223.535 149.737 223.399 149.828 223.216 149.828C222.761 149.737 222.442 149.691 222.259 149.691C222.077 149.691 221.804 149.783 221.439 149.965C220.983 149.509 220.345 149.327 219.525 149.418C218.796 149.6 218.203 149.464 217.748 149.008C217.201 149.099 216.791 149.099 216.517 149.008C216.244 149.008 216.062 148.826 215.97 148.461C214.785 148.461 213.874 148.415 213.236 148.324C212.689 148.233 212.188 147.96 211.732 147.504C210.729 147.413 210.091 147.23 209.818 146.957C209.545 146.775 209.089 146.684 208.451 146.684C208.269 146.501 208.041 146.273 207.767 146C207.585 145.727 207.403 145.499 207.22 145.316C206.491 145.408 205.944 145.362 205.58 145.18C205.215 144.997 204.714 144.906 204.076 144.906C203.62 144.451 203.164 144.177 202.709 144.086C202.253 143.995 201.797 143.767 201.341 143.402C200.339 142.764 199.746 142.4 199.564 142.309C199.473 142.309 199.382 142.263 199.291 142.172C199.017 141.99 198.698 141.807 198.334 141.625C198.06 141.443 197.696 141.306 197.24 141.215C197.058 140.941 196.875 140.668 196.693 140.395C196.511 140.212 196.192 140.076 195.736 139.984C195.007 139.164 194.551 138.799 194.369 138.891C194.278 139.073 194.141 139.118 193.959 139.027C193.776 138.663 193.457 138.389 193.002 138.207C192.637 138.116 192.364 137.888 192.181 137.523C191.543 137.159 191.179 136.885 191.088 136.703C190.996 136.612 190.905 136.43 190.814 136.156C190.267 135.974 189.812 135.655 189.447 135.199C189.174 134.835 188.718 134.561 188.08 134.379C187.624 133.741 187.305 133.285 187.123 133.012C187.032 132.829 186.895 132.647 186.713 132.465C186.075 131.736 185.528 131.234 185.072 130.961C184.707 130.779 184.434 130.46 184.252 130.004C183.614 129.548 183.203 129.229 183.021 129.047C182.839 128.956 182.657 128.819 182.474 128.637C181.927 128.09 181.608 127.771 181.517 127.68C181.517 127.589 181.472 127.497 181.381 127.406C180.651 126.768 180.196 126.404 180.013 126.312C179.922 126.221 179.922 126.085 180.013 125.902C179.558 125.629 179.239 125.219 179.056 124.672C178.874 124.216 178.555 123.897 178.099 123.715C178.099 123.441 177.963 123.168 177.689 122.895C177.507 122.621 177.325 122.393 177.142 122.211C176.96 122.029 176.823 121.801 176.732 121.527C176.641 121.254 176.504 121.026 176.322 120.844C175.775 120.388 175.456 120.069 175.365 119.887C175.365 119.704 175.319 119.568 175.228 119.477C174.864 118.93 174.59 118.565 174.408 118.383C174.317 118.292 174.18 118.155 173.998 117.973C173.815 117.517 173.633 117.107 173.451 116.742C173.269 116.378 172.995 116.013 172.631 115.648C172.448 114.555 172.084 113.734 171.537 113.188C171.172 112.185 170.808 111.592 170.443 111.41C170.625 111.137 170.625 110.909 170.443 110.727C170.352 110.544 170.215 110.271 170.033 109.906C169.759 108.539 169.486 107.719 169.213 107.445C169.03 107.172 168.802 106.898 168.529 106.625C168.529 105.987 168.256 105.395 167.709 104.848C167.891 103.936 167.709 103.344 167.162 103.07L166.888 101.293C166.615 100.473 166.433 99.8346 166.341 99.3789C166.341 98.832 166.205 98.4219 165.931 98.1484C165.749 97.3281 165.658 96.7812 165.658 96.5078C165.658 96.2344 165.567 95.9154 165.384 95.5508C165.111 95.0951 164.974 94.776 164.974 94.5938C165.065 94.4115 165.065 94.2292 164.974 94.0469L164.701 91.9961C164.519 90.9935 164.473 90.4922 164.564 90.4922C164.564 90.3099 164.473 90.0365 164.291 89.6719C164.2 89.2161 164.154 88.8971 164.154 88.7148C164.154 88.5326 164.154 88.2135 164.154 87.7578C164.245 87.3021 164.291 86.8464 164.291 86.3906C164.291 86.1172 164.245 85.8893 164.154 85.707C164.063 85.4336 164.017 85.1602 164.017 84.8867C164.108 83.9753 164.108 83.3828 164.017 83.1094C164.017 82.7448 164.108 82.3346 164.291 81.8789C164.017 81.4232 163.926 80.8763 164.017 80.2383C164.2 79.6003 164.291 78.8711 164.291 78.0508C164.2 77.3216 164.2 76.8203 164.291 76.5469C164.382 76.2734 164.427 75.9544 164.427 75.5898V73.9492C164.336 72.6732 164.336 71.8984 164.427 71.625C164.61 71.2604 164.61 70.8958 164.427 70.5312C164.701 70.349 164.838 69.9844 164.838 69.4375C164.838 68.8906 164.883 68.3438 164.974 67.7969C165.339 66.8854 165.521 66.1562 165.521 65.6094C165.612 64.9714 165.749 64.4245 165.931 63.9688C166.022 63.6953 166.114 63.4219 166.205 63.1484C166.387 62.875 166.478 62.6016 166.478 62.3281C166.843 61.4167 167.025 60.7786 167.025 60.4141C167.39 59.5938 167.572 59.0924 167.572 58.9102C167.663 58.6367 167.709 58.4089 167.709 58.2266C167.982 57.1328 168.164 56.4948 168.256 56.3125C168.438 56.1302 168.575 55.9479 168.666 55.7656C168.848 54.8542 168.894 54.3984 168.802 54.3984C168.711 54.3073 168.711 54.1706 168.802 53.9883C168.985 53.4414 169.304 53.0312 169.759 52.7578C169.851 52.3932 169.987 52.1198 170.17 51.9375C170.352 51.7552 170.443 51.4362 170.443 50.9805L171.263 49.4766C171.81 49.3854 172.129 49.1576 172.22 48.793C172.312 48.3372 172.403 47.8815 172.494 47.4258C173.041 46.9701 173.405 46.6966 173.588 46.6055C173.861 46.5143 173.952 46.2409 173.861 45.7852C174.317 45.3294 174.727 44.8737 175.091 44.418C175.456 43.9622 175.729 43.3242 175.912 42.5039C176.459 42.3216 176.778 42.0938 176.869 41.8203C176.96 41.5469 177.233 41.4557 177.689 41.5469C178.145 40.9089 178.464 40.4076 178.646 40.043C179.011 39.4961 179.466 39.0404 180.013 38.6758C180.56 38.3112 180.925 37.7643 181.107 37.0352C181.836 36.306 182.429 35.8958 182.884 35.8047C183.522 35.1667 183.933 34.8021 184.115 34.7109C184.297 34.5286 184.434 34.3008 184.525 34.0273C184.707 33.7539 184.89 33.4805 185.072 33.207C185.71 33.1159 186.257 32.569 186.713 31.5664C187.259 31.4753 187.67 31.2474 187.943 30.8828C188.216 30.5182 188.627 30.2448 189.174 30.0625C189.265 29.6979 189.447 29.4701 189.72 29.3789C190.085 29.1966 190.313 28.9232 190.404 28.5586C191.68 28.1029 192.364 27.7383 192.455 27.4648C192.637 27.1914 192.956 27.0547 193.412 27.0547C193.959 26.5078 194.232 26.1432 194.232 25.9609C194.323 25.6875 194.597 25.5508 195.052 25.5508C195.417 25.0039 195.645 24.6849 195.736 24.5938C195.827 24.5026 195.964 24.457 196.146 24.457C196.602 24.1836 196.966 23.9102 197.24 23.6367C197.604 23.2721 198.06 22.9987 198.607 22.8164C199.063 22.543 199.473 22.2695 199.838 21.9961C200.202 21.7227 200.658 21.4948 201.205 21.3125C201.934 20.5833 202.299 20.2188 202.299 20.2188C202.39 20.1276 202.481 19.9909 202.572 19.8086C203.483 19.3529 204.167 18.8971 204.623 18.4414C205.443 17.8945 205.99 17.6211 206.263 17.6211C206.628 17.5299 206.81 17.3021 206.81 16.9375C207.722 17.1198 208.405 16.9831 208.861 16.5273C209.408 15.9805 210.183 15.6615 211.185 15.5703C211.641 15.1146 212.188 14.7044 212.826 14.3398C213.282 14.0664 213.646 13.9297 213.92 13.9297C214.193 13.8385 214.421 13.6562 214.603 13.3828C215.241 13.2917 215.651 13.1094 215.834 12.8359C216.107 12.5625 216.517 12.4714 217.064 12.5625C217.884 12.1068 218.796 11.7422 219.799 11.4688C220.801 11.1042 221.667 10.694 222.396 10.2383C223.125 10.2383 223.763 10.1016 224.31 9.82812C224.948 9.55469 225.45 9.46354 225.814 9.55469C226.27 9.55469 226.68 9.46354 227.045 9.28125C227.409 9.1901 227.728 9.05339 228.002 8.87109C228.366 8.59766 228.731 8.50651 229.095 8.59766C230.28 8.32422 231.009 8.23307 231.283 8.32422C231.556 8.23307 231.784 8.14193 231.966 8.05078C232.149 7.95964 232.377 7.82292 232.65 7.64062C233.288 7.82292 233.881 7.82292 234.427 7.64062C234.974 7.36719 235.476 7.32161 235.931 7.50391C236.569 7.41276 236.979 7.32161 237.162 7.23047C237.435 7.13932 237.618 7.1849 237.709 7.36719C237.891 7.1849 238.073 7.13932 238.256 7.23047C238.529 7.23047 238.848 7.13932 239.213 6.95703C239.395 7.23047 239.714 7.36719 240.17 7.36719C240.625 7.27604 241.081 7.27604 241.537 7.36719C242.448 7.64062 242.904 7.73177 242.904 7.64062C242.904 7.45833 242.995 7.32161 243.177 7.23047C243.724 7.04818 244.134 7.04818 244.408 7.23047C244.772 7.41276 245.183 7.41276 245.638 7.23047L247.416 6.82031Z" fill="#BB985F"/>
</g>
<defs>
<filter id="filter0_g_7_24" x="0.696777" y="0.453125" width="286.992" height="184.59" filterUnits="userSpaceOnUse" color-interpolation-filters="sRGB">
<feFlood flood-opacity="0" result="BackgroundImageFix"/>
<feBlend mode="normal" in="SourceGraphic" in2="BackgroundImageFix" result="shape"/>
<feTurbulence type="fractalNoise" baseFrequency="2.5 2.5" numOctaves="3" seed="9001" />
<feDisplacementMap in="shape" scale="10" xChannelSelector="R" yChannelSelector="G" result="displacedImage" width="100%" height="100%" />
<feMerge result="effect1_texture_7_24">
<feMergeNode in="displacedImage"/>
</feMerge>
</filter>
</defs>
</svg>
