<svg width="30" height="30" viewBox="0 0 30 30" fill="none" xmlns="http://www.w3.org/2000/svg">
<ellipse cx="15.0001" cy="15" rx="8.45455" ry="8.45455" fill="#E7C579"/>
<rect x="20.7272" y="22.6558" width="2.72727" height="5.45455" rx="1.36364" transform="rotate(-45 20.7272 22.6558)" fill="#E7C579"/>
<rect x="3.27271" y="5.2012" width="2.72727" height="5.45455" rx="1.36364" transform="rotate(-45 3.27271 5.2012)" fill="#E7C579"/>
<rect x="24.5842" y="3.27271" width="2.72727" height="5.45455" rx="1.36364" transform="rotate(45 24.5842 3.27271)" fill="#E7C579"/>
<rect x="13.6364" y="24.5454" width="2.72727" height="5.45455" rx="1.36364" fill="#E7C579"/>
<rect x="7.12964" y="20.7273" width="2.72727" height="5.45455" rx="1.36364" transform="rotate(45 7.12964 20.7273)" fill="#E7C579"/>
<rect x="24.5455" y="16.3636" width="2.72727" height="5.45455" rx="1.36364" transform="rotate(-90 24.5455 16.3636)" fill="#E7C579"/>
<rect y="16.3636" width="2.72727" height="5.45455" rx="1.36364" transform="rotate(-90 0 16.3636)" fill="#E7C579"/>
<rect x="13.6364" width="2.72727" height="5.45455" rx="1.36364" fill="#E7C579"/>
<circle cx="15" cy="15" r="6.17647" fill="#3B1434"/>
</svg>
